<svg width="120" height="40" viewBox="0 0 120 40" fill="none" xmlns="http://www.w3.org/2000/svg">
<g clip-path="url(#clip0)">
<g filter="url(#filter0_d)">
<rect x="5" y="5" width="110" height="30" rx="15" fill="#5F606D"/>
</g>
<path d="M52.6785 15.504H56.0265C56.5865 15.504 57.1265 15.592 57.6465 15.768C58.1665 15.936 58.6265 16.196 59.0265 16.548C59.4265 16.9 59.7465 17.344 59.9865 17.88C60.2265 18.408 60.3465 19.032 60.3465 19.752C60.3465 20.48 60.2065 21.112 59.9265 21.648C59.6545 22.176 59.2985 22.616 58.8585 22.968C58.4265 23.312 57.9425 23.572 57.4065 23.748C56.8785 23.916 56.3585 24 55.8465 24H52.6785V15.504ZM55.3185 22.632C55.7905 22.632 56.2345 22.58 56.6505 22.476C57.0745 22.364 57.4425 22.196 57.7545 21.972C58.0665 21.74 58.3105 21.444 58.4865 21.084C58.6705 20.716 58.7625 20.272 58.7625 19.752C58.7625 19.24 58.6825 18.8 58.5225 18.432C58.3625 18.064 58.1385 17.768 57.8505 17.544C57.5705 17.312 57.2345 17.144 56.8425 17.04C56.4585 16.928 56.0345 16.872 55.5705 16.872H54.1905V22.632H55.3185ZM64.5319 15.504H65.8399L69.4999 24H67.7719L66.9799 22.056H63.2959L62.5279 24H60.8359L64.5319 15.504ZM66.4519 20.76L65.1439 17.304L63.8119 20.76H66.4519ZM70.4441 15.504H73.3961C73.8041 15.504 74.1961 15.544 74.5721 15.624C74.9561 15.696 75.2961 15.824 75.5921 16.008C75.8881 16.192 76.1241 16.44 76.3001 16.752C76.4761 17.064 76.5641 17.46 76.5641 17.94C76.5641 18.556 76.3921 19.072 76.0481 19.488C75.7121 19.904 75.2281 20.156 74.5961 20.244L76.8521 24H75.0281L73.0601 20.4H71.9561V24H70.4441V15.504ZM73.1321 19.104C73.3481 19.104 73.5641 19.096 73.7801 19.08C73.9961 19.056 74.1921 19.008 74.3681 18.936C74.5521 18.856 74.7001 18.74 74.8121 18.588C74.9241 18.428 74.9801 18.208 74.9801 17.928C74.9801 17.68 74.9281 17.48 74.8241 17.328C74.7201 17.176 74.5841 17.064 74.4161 16.992C74.2481 16.912 74.0601 16.86 73.8521 16.836C73.6521 16.812 73.4561 16.8 73.2641 16.8H71.9561V19.104H73.1321ZM78.0027 15.504H79.5147V19.104H79.5867L83.1027 15.504H85.1427L81.1707 19.428L85.4067 24H83.2827L79.5987 19.824H79.5147V24H78.0027V15.504Z" fill="white"/>
<path fill-rule="evenodd" clip-rule="evenodd" d="M33 20C33 23.866 29.866 27 26 27C24.8401 27 23.7461 26.7179 22.7828 26.2185C23.6915 26.1825 24.5427 25.8826 25.2815 25.3826C25.5474 25.4233 25.8199 25.4444 26.0972 25.4444C29.0504 25.4444 31.4444 23.0504 31.4444 20.0972C31.4444 17.144 29.0504 14.75 26.0972 14.75C25.8991 14.75 25.7035 14.7608 25.5109 14.7818C24.7212 14.1835 23.7871 13.8213 22.7828 13.7815C23.7461 13.2821 24.8401 13 26 13C29.866 13 33 16.134 33 20Z" fill="white"/>
</g>
<defs>
<filter id="filter0_d" x="-5" y="-5" width="130" height="50" filterUnits="userSpaceOnUse" color-interpolation-filters="sRGB">
<feFlood flood-opacity="0" result="BackgroundImageFix"/>
<feColorMatrix in="SourceAlpha" type="matrix" values="0 0 0 0 0 0 0 0 0 0 0 0 0 0 0 0 0 0 127 0"/>
<feOffset/>
<feGaussianBlur stdDeviation="5"/>
<feColorMatrix type="matrix" values="0 0 0 0 0.372549 0 0 0 0 0.376471 0 0 0 0 0.427451 0 0 0 0.7 0"/>
<feBlend mode="normal" in2="BackgroundImageFix" result="effect1_dropShadow"/>
<feBlend mode="normal" in="SourceGraphic" in2="effect1_dropShadow" result="shape"/>
</filter>
<clipPath id="clip0">
<rect width="110" height="30" fill="white" transform="translate(5 5)"/>
</clipPath>
</defs>
</svg>
