<svg width="120" height="40" viewBox="0 0 120 40" fill="none" xmlns="http://www.w3.org/2000/svg">
<g clip-path="url(#clip0)">
<g filter="url(#filter0_d)">
<rect x="5" y="5" width="110" height="30" rx="15" fill="#0773C7"/>
</g>
<path d="M42.3425 15.504H45.6905C46.2505 15.504 46.7905 15.592 47.3105 15.768C47.8305 15.936 48.2905 16.196 48.6905 16.548C49.0905 16.9 49.4105 17.344 49.6505 17.88C49.8905 18.408 50.0105 19.032 50.0105 19.752C50.0105 20.48 49.8705 21.112 49.5905 21.648C49.3185 22.176 48.9625 22.616 48.5225 22.968C48.0905 23.312 47.6065 23.572 47.0705 23.748C46.5425 23.916 46.0225 24 45.5105 24H42.3425V15.504ZM44.9825 22.632C45.4545 22.632 45.8985 22.58 46.3145 22.476C46.7385 22.364 47.1065 22.196 47.4185 21.972C47.7305 21.74 47.9745 21.444 48.1505 21.084C48.3345 20.716 48.4265 20.272 48.4265 19.752C48.4265 19.24 48.3465 18.8 48.1865 18.432C48.0265 18.064 47.8025 17.768 47.5145 17.544C47.2345 17.312 46.8985 17.144 46.5065 17.04C46.1225 16.928 45.6985 16.872 45.2345 16.872H43.8545V22.632H44.9825ZM51.448 15.504H54.4C54.808 15.504 55.2 15.544 55.576 15.624C55.96 15.696 56.3 15.824 56.596 16.008C56.892 16.192 57.128 16.44 57.304 16.752C57.48 17.064 57.568 17.46 57.568 17.94C57.568 18.556 57.396 19.072 57.052 19.488C56.716 19.904 56.232 20.156 55.6 20.244L57.856 24H56.032L54.064 20.4H52.96V24H51.448V15.504ZM54.136 19.104C54.352 19.104 54.568 19.096 54.784 19.08C55 19.056 55.196 19.008 55.372 18.936C55.556 18.856 55.704 18.74 55.816 18.588C55.928 18.428 55.984 18.208 55.984 17.928C55.984 17.68 55.932 17.48 55.828 17.328C55.724 17.176 55.588 17.064 55.42 16.992C55.252 16.912 55.064 16.86 54.856 16.836C54.656 16.812 54.46 16.8 54.268 16.8H52.96V19.104H54.136ZM61.7546 15.504H63.0626L66.7226 24H64.9946L64.2026 22.056H60.5186L59.7506 24H58.0586L61.7546 15.504ZM63.6746 20.76L62.3666 17.304L61.0346 20.76H63.6746ZM75.2148 23.376C74.1668 23.936 72.9948 24.216 71.6988 24.216C71.0428 24.216 70.4388 24.112 69.8867 23.904C69.3428 23.688 68.8708 23.388 68.4708 23.004C68.0788 22.612 67.7708 22.144 67.5468 21.6C67.3228 21.056 67.2108 20.452 67.2108 19.788C67.2108 19.108 67.3228 18.492 67.5468 17.94C67.7708 17.38 68.0788 16.904 68.4708 16.512C68.8708 16.12 69.3428 15.82 69.8867 15.612C70.4388 15.396 71.0428 15.288 71.6988 15.288C72.3468 15.288 72.9548 15.368 73.5228 15.528C74.0908 15.68 74.5988 15.956 75.0468 16.356L73.9308 17.484C73.6588 17.22 73.3268 17.016 72.9348 16.872C72.5508 16.728 72.1428 16.656 71.7108 16.656C71.2708 16.656 70.8708 16.736 70.5108 16.896C70.1588 17.048 69.8548 17.264 69.5988 17.544C69.3428 17.816 69.1428 18.136 68.9988 18.504C68.8628 18.872 68.7948 19.268 68.7948 19.692C68.7948 20.148 68.8628 20.568 68.9988 20.952C69.1428 21.336 69.3428 21.668 69.5988 21.948C69.8548 22.228 70.1588 22.448 70.5108 22.608C70.8708 22.768 71.2708 22.848 71.7108 22.848C72.0948 22.848 72.4548 22.812 72.7908 22.74C73.1348 22.668 73.4388 22.556 73.7028 22.404V20.4H71.9628V19.032H75.2148V23.376ZM76.5506 19.788C76.5506 19.108 76.6626 18.492 76.8866 17.94C77.1106 17.38 77.4186 16.904 77.8106 16.512C78.2106 16.12 78.6826 15.82 79.2266 15.612C79.7786 15.396 80.3826 15.288 81.0386 15.288C81.7026 15.28 82.3106 15.38 82.8626 15.588C83.4146 15.788 83.8906 16.084 84.2906 16.476C84.6906 16.868 85.0026 17.34 85.2266 17.892C85.4506 18.444 85.5626 19.06 85.5626 19.74C85.5626 20.404 85.4506 21.008 85.2266 21.552C85.0026 22.096 84.6906 22.564 84.2906 22.956C83.8906 23.348 83.4146 23.656 82.8626 23.88C82.3106 24.096 81.7026 24.208 81.0386 24.216C80.3826 24.216 79.7786 24.112 79.2266 23.904C78.6826 23.688 78.2106 23.388 77.8106 23.004C77.4186 22.612 77.1106 22.144 76.8866 21.6C76.6626 21.056 76.5506 20.452 76.5506 19.788ZM78.1346 19.692C78.1346 20.148 78.2026 20.568 78.3386 20.952C78.4826 21.336 78.6826 21.668 78.9386 21.948C79.1946 22.228 79.4986 22.448 79.8506 22.608C80.2106 22.768 80.6106 22.848 81.0506 22.848C81.4906 22.848 81.8906 22.768 82.2506 22.608C82.6106 22.448 82.9186 22.228 83.1746 21.948C83.4306 21.668 83.6266 21.336 83.7626 20.952C83.9066 20.568 83.9786 20.148 83.9786 19.692C83.9786 19.268 83.9066 18.872 83.7626 18.504C83.6266 18.136 83.4306 17.816 83.1746 17.544C82.9186 17.264 82.6106 17.048 82.2506 16.896C81.8906 16.736 81.4906 16.656 81.0506 16.656C80.6106 16.656 80.2106 16.736 79.8506 16.896C79.4986 17.048 79.1946 17.264 78.9386 17.544C78.6826 17.816 78.4826 18.136 78.3386 18.504C78.2026 18.872 78.1346 19.268 78.1346 19.692ZM87.0027 15.504H89.0067L93.1227 21.816H93.1467V15.504H94.6587V24H92.7387L88.5387 17.484H88.5147V24H87.0027V15.504Z" fill="white"/>
<path fill-rule="evenodd" clip-rule="evenodd" d="M26.7804 18.965C26.8888 18.8989 26.9808 18.7603 27.0551 18.6063C28.0315 19.0054 28.7176 19.9484 28.7176 21.0481C28.7176 22.5091 27.5067 23.6934 26.0129 23.6934C25.3998 23.6934 24.8342 23.4938 24.3806 23.1575C24.2317 23.087 24.1093 23.0193 24.0091 22.9639C23.8537 22.878 23.7518 22.8217 23.688 22.8305C23.5014 22.8562 23.5556 23.0278 23.6048 23.1837C23.6383 23.2896 23.6694 23.3883 23.6212 23.429C23.5707 23.4716 23.4074 23.3158 23.2165 23.1338C22.9566 22.886 22.6457 22.5896 22.4991 22.6787C22.3832 22.7491 22.4957 22.94 22.6335 23.1738L22.6437 23.1911C22.7019 23.29 22.7693 23.3905 22.8309 23.4824C22.956 23.669 23.0567 23.8193 23.0063 23.8448C22.9454 23.8755 22.5208 23.589 22.163 23.1911C22.0249 23.0376 21.8911 22.8711 21.7669 22.7165C21.4948 22.3779 21.2681 22.0959 21.1408 22.1293C20.9878 22.1695 21.1036 22.4852 21.2737 22.7891C21.3533 22.9312 21.4469 23.0759 21.5279 23.2011C21.6539 23.396 21.7496 23.5438 21.7149 23.562C21.6681 23.5865 21.2562 23.1848 20.9764 22.6787C20.8102 22.378 20.6707 22.0458 20.5577 21.7768C20.4352 21.4851 20.344 21.2678 20.2839 21.2459C20.0751 21.1699 20.0751 21.5956 20.1589 22.21C20.1698 22.2901 20.186 22.3741 20.2061 22.4597C21.0181 25.087 23.5125 27 26.4637 27C30.0736 27 33 24.1379 33 20.6072C33 17.2469 30.3491 14.4921 26.981 14.2342C26.9852 14.0759 27.0678 13.762 27.0678 13.762C27.0678 13.762 27.6625 12.3233 27.6939 12.0159C27.696 11.9955 27.6984 11.9734 27.7011 11.9497C27.7381 11.6176 27.807 11 27.2757 11C26.992 11 26.86 11.2111 26.7091 11.4525C26.6512 11.5452 26.5904 11.6423 26.5172 11.7337C25.9901 12.392 25.1037 13.214 24.6011 13.652C23.5388 14.5776 22.4966 15.3384 21.8887 15.7821L21.8887 15.7821L21.8887 15.7821C21.6122 15.9839 21.4256 16.1201 21.3679 16.1764C20.9327 16.6006 19.3723 19.4152 19.3723 19.4152C19.3723 19.4152 18.8677 20.3182 19.047 20.5013C19.2264 20.6845 19.6589 20.6425 19.6589 20.6425C19.6589 20.6425 25.4696 19.3095 25.9898 19.2043C26.1299 19.176 26.2287 19.1597 26.3046 19.1472C26.5107 19.1131 26.5477 19.107 26.7804 18.965ZM22.6721 17.252C22.3602 17.5485 21.8429 18.2561 21.8429 18.2561C21.8429 18.2561 22.8043 18.3154 23.3338 17.8121C23.8632 17.3088 23.7419 16.451 23.7419 16.451C23.7419 16.451 22.984 16.9555 22.6721 17.252Z" fill="white"/>
</g>
<defs>
<filter id="filter0_d" x="-5" y="-5" width="130" height="50" filterUnits="userSpaceOnUse" color-interpolation-filters="sRGB">
<feFlood flood-opacity="0" result="BackgroundImageFix"/>
<feColorMatrix in="SourceAlpha" type="matrix" values="0 0 0 0 0 0 0 0 0 0 0 0 0 0 0 0 0 0 127 0"/>
<feOffset/>
<feGaussianBlur stdDeviation="5"/>
<feColorMatrix type="matrix" values="0 0 0 0 0.027451 0 0 0 0 0.45098 0 0 0 0 0.780392 0 0 0 0.7 0"/>
<feBlend mode="normal" in2="BackgroundImageFix" result="effect1_dropShadow"/>
<feBlend mode="normal" in="SourceGraphic" in2="effect1_dropShadow" result="shape"/>
</filter>
<clipPath id="clip0">
<rect width="110" height="30" fill="white" transform="translate(5 5)"/>
</clipPath>
</defs>
</svg>
