<svg width="120" height="40" viewBox="0 0 120 40" fill="none" xmlns="http://www.w3.org/2000/svg">
<g clip-path="url(#clip0)">
<g filter="url(#filter0_d)">
<rect x="5" y="5" width="110" height="30" rx="15" fill="#9BB4E8"/>
</g>
<path d="M48.6648 15.504H54.1488V16.872H50.1768V19.104H53.9208V20.472H50.1768V24H48.6648V15.504ZM55.5554 15.504H57.0674V22.632H60.6794V24H55.5554V15.504ZM62.5181 20.364L59.3261 15.504H61.2221L63.3101 18.888L65.4221 15.504H67.2221L64.0301 20.364V24H62.5181V20.364ZM67.9647 15.504H69.4767V24H67.9647V15.504ZM71.3406 15.504H73.3446L77.4606 21.816H77.4846V15.504H78.9966V24H77.0766L72.8766 17.484H72.8526V24H71.3406V15.504ZM88.4394 23.376C87.3914 23.936 86.2194 24.216 84.9234 24.216C84.2674 24.216 83.6634 24.112 83.1114 23.904C82.5674 23.688 82.0954 23.388 81.6954 23.004C81.3034 22.612 80.9954 22.144 80.7714 21.6C80.5474 21.056 80.4354 20.452 80.4354 19.788C80.4354 19.108 80.5474 18.492 80.7714 17.94C80.9954 17.38 81.3034 16.904 81.6954 16.512C82.0954 16.12 82.5674 15.82 83.1114 15.612C83.6634 15.396 84.2674 15.288 84.9234 15.288C85.5714 15.288 86.1794 15.368 86.7474 15.528C87.3154 15.68 87.8234 15.956 88.2714 16.356L87.1554 17.484C86.8834 17.22 86.5514 17.016 86.1594 16.872C85.7754 16.728 85.3674 16.656 84.9354 16.656C84.4954 16.656 84.0954 16.736 83.7354 16.896C83.3834 17.048 83.0794 17.264 82.8234 17.544C82.5674 17.816 82.3674 18.136 82.2234 18.504C82.0874 18.872 82.0194 19.268 82.0194 19.692C82.0194 20.148 82.0874 20.568 82.2234 20.952C82.3674 21.336 82.5674 21.668 82.8234 21.948C83.0794 22.228 83.3834 22.448 83.7354 22.608C84.0954 22.768 84.4954 22.848 84.9354 22.848C85.3194 22.848 85.6794 22.812 86.0154 22.74C86.3594 22.668 86.6634 22.556 86.9274 22.404V20.4H85.1874V19.032H88.4394V23.376Z" fill="white"/>
<ellipse cx="26.5" cy="18.5" rx="7.5" ry="6.5" fill="white"/>
</g>
<defs>
<filter id="filter0_d" x="-5" y="-5" width="130" height="50" filterUnits="userSpaceOnUse" color-interpolation-filters="sRGB">
<feFlood flood-opacity="0" result="BackgroundImageFix"/>
<feColorMatrix in="SourceAlpha" type="matrix" values="0 0 0 0 0 0 0 0 0 0 0 0 0 0 0 0 0 0 127 0"/>
<feOffset/>
<feGaussianBlur stdDeviation="5"/>
<feColorMatrix type="matrix" values="0 0 0 0 0.607843 0 0 0 0 0.705882 0 0 0 0 0.909804 0 0 0 0.7 0"/>
<feBlend mode="normal" in2="BackgroundImageFix" result="effect1_dropShadow"/>
<feBlend mode="normal" in="SourceGraphic" in2="effect1_dropShadow" result="shape"/>
</filter>
<clipPath id="clip0">
<rect width="110" height="30" fill="white" transform="translate(5 5)"/>
</clipPath>
</defs>
</svg>
