<svg width="120" height="40" viewBox="0 0 120 40" fill="none" xmlns="http://www.w3.org/2000/svg">
<g clip-path="url(#clip0)">
<g filter="url(#filter0_d)">
<rect x="5" y="5" width="110" height="30" rx="15" fill="#6970C5"/>
</g>
<path d="M55.9901 23.376C54.9421 23.936 53.7701 24.216 52.4741 24.216C51.8181 24.216 51.2141 24.112 50.6621 23.904C50.1181 23.688 49.6461 23.388 49.2461 23.004C48.8541 22.612 48.5461 22.144 48.3221 21.6C48.0981 21.056 47.9861 20.452 47.9861 19.788C47.9861 19.108 48.0981 18.492 48.3221 17.94C48.5461 17.38 48.8541 16.904 49.2461 16.512C49.6461 16.12 50.1181 15.82 50.6621 15.612C51.2141 15.396 51.8181 15.288 52.4741 15.288C53.1221 15.288 53.7301 15.368 54.2981 15.528C54.8661 15.68 55.3741 15.956 55.8221 16.356L54.7061 17.484C54.4341 17.22 54.1021 17.016 53.7101 16.872C53.3261 16.728 52.9181 16.656 52.4861 16.656C52.0461 16.656 51.6461 16.736 51.2861 16.896C50.9341 17.048 50.6301 17.264 50.3741 17.544C50.1181 17.816 49.9181 18.136 49.7741 18.504C49.6381 18.872 49.5701 19.268 49.5701 19.692C49.5701 20.148 49.6381 20.568 49.7741 20.952C49.9181 21.336 50.1181 21.668 50.3741 21.948C50.6301 22.228 50.9341 22.448 51.2861 22.608C51.6461 22.768 52.0461 22.848 52.4861 22.848C52.8701 22.848 53.2301 22.812 53.5661 22.74C53.9101 22.668 54.2141 22.556 54.4781 22.404V20.4H52.7381V19.032H55.9901V23.376ZM57.782 15.504H59.294V18.888H63.266V15.504H64.778V24H63.266V20.256H59.294V24H57.782V15.504ZM66.2205 19.788C66.2205 19.108 66.3325 18.492 66.5565 17.94C66.7805 17.38 67.0885 16.904 67.4805 16.512C67.8805 16.12 68.3525 15.82 68.8965 15.612C69.4485 15.396 70.0525 15.288 70.7085 15.288C71.3725 15.28 71.9805 15.38 72.5325 15.588C73.0845 15.788 73.5605 16.084 73.9605 16.476C74.3605 16.868 74.6725 17.34 74.8965 17.892C75.1205 18.444 75.2325 19.06 75.2325 19.74C75.2325 20.404 75.1205 21.008 74.8965 21.552C74.6725 22.096 74.3605 22.564 73.9605 22.956C73.5605 23.348 73.0845 23.656 72.5325 23.88C71.9805 24.096 71.3725 24.208 70.7085 24.216C70.0525 24.216 69.4485 24.112 68.8965 23.904C68.3525 23.688 67.8805 23.388 67.4805 23.004C67.0885 22.612 66.7805 22.144 66.5565 21.6C66.3325 21.056 66.2205 20.452 66.2205 19.788ZM67.8045 19.692C67.8045 20.148 67.8725 20.568 68.0085 20.952C68.1525 21.336 68.3525 21.668 68.6085 21.948C68.8645 22.228 69.1685 22.448 69.5205 22.608C69.8805 22.768 70.2805 22.848 70.7205 22.848C71.1605 22.848 71.5605 22.768 71.9205 22.608C72.2805 22.448 72.5885 22.228 72.8445 21.948C73.1005 21.668 73.2965 21.336 73.4325 20.952C73.5765 20.568 73.6485 20.148 73.6485 19.692C73.6485 19.268 73.5765 18.872 73.4325 18.504C73.2965 18.136 73.1005 17.816 72.8445 17.544C72.5885 17.264 72.2805 17.048 71.9205 16.896C71.5605 16.736 71.1605 16.656 70.7205 16.656C70.2805 16.656 69.8805 16.736 69.5205 16.896C69.1685 17.048 68.8645 17.264 68.6085 17.544C68.3525 17.816 68.1525 18.136 68.0085 18.504C67.8725 18.872 67.8045 19.268 67.8045 19.692ZM80.8366 17.328C80.6766 17.096 80.4606 16.928 80.1886 16.824C79.9246 16.712 79.6446 16.656 79.3486 16.656C79.1726 16.656 79.0006 16.676 78.8326 16.716C78.6726 16.756 78.5246 16.82 78.3886 16.908C78.2606 16.996 78.1566 17.112 78.0766 17.256C77.9966 17.392 77.9566 17.556 77.9566 17.748C77.9566 18.036 78.0566 18.256 78.2566 18.408C78.4566 18.56 78.7046 18.692 79.0006 18.804C79.2966 18.916 79.6206 19.024 79.9726 19.128C80.3246 19.232 80.6486 19.376 80.9446 19.56C81.2406 19.744 81.4886 19.988 81.6886 20.292C81.8886 20.596 81.9886 21 81.9886 21.504C81.9886 21.96 81.9046 22.36 81.7366 22.704C81.5686 23.04 81.3406 23.32 81.0526 23.544C80.7726 23.768 80.4446 23.936 80.0686 24.048C79.6926 24.16 79.2966 24.216 78.8806 24.216C78.3526 24.216 77.8446 24.128 77.3566 23.952C76.8686 23.776 76.4486 23.48 76.0966 23.064L77.2366 21.96C77.4206 22.24 77.6606 22.46 77.9566 22.62C78.2606 22.772 78.5806 22.848 78.9166 22.848C79.0926 22.848 79.2686 22.824 79.4446 22.776C79.6206 22.728 79.7806 22.656 79.9246 22.56C80.0686 22.464 80.1846 22.344 80.2726 22.2C80.3606 22.048 80.4046 21.876 80.4046 21.684C80.4046 21.372 80.3046 21.132 80.1046 20.964C79.9046 20.796 79.6566 20.656 79.3606 20.544C79.0646 20.424 78.7406 20.312 78.3886 20.208C78.0366 20.104 77.7126 19.964 77.4166 19.788C77.1206 19.604 76.8726 19.364 76.6726 19.068C76.4726 18.764 76.3726 18.36 76.3726 17.856C76.3726 17.416 76.4606 17.036 76.6366 16.716C76.8206 16.396 77.0566 16.132 77.3446 15.924C77.6406 15.708 77.9766 15.548 78.3526 15.444C78.7286 15.34 79.1126 15.288 79.5046 15.288C79.9526 15.288 80.3846 15.356 80.8006 15.492C81.2246 15.628 81.6046 15.852 81.9406 16.164L80.8366 17.328ZM85.3032 16.872H82.6992V15.504H89.4192V16.872H86.8152V24H85.3032V16.872Z" fill="white"/>
<path fill-rule="evenodd" clip-rule="evenodd" d="M26 26C29.866 26 33 22.866 33 19C33 15.134 29.866 12 26 12C22.134 12 19 15.134 19 19C19 22.866 22.134 26 26 26ZM23.9219 19.0721C24.5259 19.0721 25.0156 18.5924 25.0156 18.0006H24.3394C23.8188 18.0006 23.3945 17.588 23.3757 17.072C23.0484 17.2572 22.8281 17.6037 22.8281 18.0006C22.8281 18.5924 23.3178 19.0721 23.9219 19.0721ZM26.7656 18.0006C26.7656 18.5924 27.2553 19.0721 27.8594 19.0721C28.4634 19.0721 28.9531 18.5924 28.9531 18.0006C28.9531 17.6037 28.7329 17.2572 28.4056 17.072C28.3868 17.588 27.9625 18.0006 27.4419 18.0006H26.7656Z" fill="white"/>
</g>
<defs>
<filter id="filter0_d" x="-5" y="-5" width="130" height="50" filterUnits="userSpaceOnUse" color-interpolation-filters="sRGB">
<feFlood flood-opacity="0" result="BackgroundImageFix"/>
<feColorMatrix in="SourceAlpha" type="matrix" values="0 0 0 0 0 0 0 0 0 0 0 0 0 0 0 0 0 0 127 0"/>
<feOffset/>
<feGaussianBlur stdDeviation="5"/>
<feColorMatrix type="matrix" values="0 0 0 0 0.411765 0 0 0 0 0.439216 0 0 0 0 0.772549 0 0 0 0.7 0"/>
<feBlend mode="normal" in2="BackgroundImageFix" result="effect1_dropShadow"/>
<feBlend mode="normal" in="SourceGraphic" in2="effect1_dropShadow" result="shape"/>
</filter>
<clipPath id="clip0">
<rect width="110" height="30" fill="white" transform="translate(5 5)"/>
</clipPath>
</defs>
</svg>
