<svg width="120" height="40" viewBox="0 0 120 40" fill="none" xmlns="http://www.w3.org/2000/svg">
<g clip-path="url(#clip0)">
<g filter="url(#filter0_d)">
<rect x="5" y="5" width="110" height="30" rx="15" fill="#5DBE62"/>
</g>
<path d="M57.3261 23.376C56.2781 23.936 55.1061 24.216 53.8101 24.216C53.1541 24.216 52.5501 24.112 51.9981 23.904C51.4541 23.688 50.9821 23.388 50.5821 23.004C50.1901 22.612 49.8821 22.144 49.6581 21.6C49.4341 21.056 49.3221 20.452 49.3221 19.788C49.3221 19.108 49.4341 18.492 49.6581 17.94C49.8821 17.38 50.1901 16.904 50.5821 16.512C50.9821 16.12 51.4541 15.82 51.9981 15.612C52.5501 15.396 53.1541 15.288 53.8101 15.288C54.4581 15.288 55.0661 15.368 55.6341 15.528C56.2021 15.68 56.7101 15.956 57.1581 16.356L56.0421 17.484C55.7701 17.22 55.4381 17.016 55.0461 16.872C54.6621 16.728 54.2541 16.656 53.8221 16.656C53.3821 16.656 52.9821 16.736 52.6221 16.896C52.2701 17.048 51.9661 17.264 51.7101 17.544C51.4541 17.816 51.2541 18.136 51.1101 18.504C50.9741 18.872 50.9061 19.268 50.9061 19.692C50.9061 20.148 50.9741 20.568 51.1101 20.952C51.2541 21.336 51.4541 21.668 51.7101 21.948C51.9661 22.228 52.2701 22.448 52.6221 22.608C52.9821 22.768 53.3821 22.848 53.8221 22.848C54.2061 22.848 54.5661 22.812 54.9021 22.74C55.2461 22.668 55.5501 22.556 55.8141 22.404V20.4H54.0741V19.032H57.3261V23.376ZM59.1179 15.504H62.0699C62.4779 15.504 62.8699 15.544 63.2459 15.624C63.6299 15.696 63.9699 15.824 64.2659 16.008C64.5619 16.192 64.7979 16.44 64.9739 16.752C65.1499 17.064 65.2379 17.46 65.2379 17.94C65.2379 18.556 65.0659 19.072 64.7219 19.488C64.3859 19.904 63.9019 20.156 63.2699 20.244L65.5259 24H63.7019L61.7339 20.4H60.6299V24H59.1179V15.504ZM61.8059 19.104C62.0219 19.104 62.2379 19.096 62.4539 19.08C62.6699 19.056 62.8659 19.008 63.0419 18.936C63.2259 18.856 63.3739 18.74 63.4859 18.588C63.5979 18.428 63.6539 18.208 63.6539 17.928C63.6539 17.68 63.6019 17.48 63.4979 17.328C63.3939 17.176 63.2579 17.064 63.0899 16.992C62.9219 16.912 62.7339 16.86 62.5259 16.836C62.3259 16.812 62.1299 16.8 61.9379 16.8H60.6299V19.104H61.8059ZM69.4245 15.504H70.7325L74.3925 24H72.6645L71.8725 22.056H68.1885L67.4205 24H65.7285L69.4245 15.504ZM71.3445 20.76L70.0365 17.304L68.7045 20.76H71.3445ZM79.5007 17.328C79.3407 17.096 79.1247 16.928 78.8527 16.824C78.5887 16.712 78.3087 16.656 78.0127 16.656C77.8367 16.656 77.6647 16.676 77.4967 16.716C77.3367 16.756 77.1887 16.82 77.0527 16.908C76.9247 16.996 76.8207 17.112 76.7407 17.256C76.6607 17.392 76.6207 17.556 76.6207 17.748C76.6207 18.036 76.7207 18.256 76.9207 18.408C77.1207 18.56 77.3687 18.692 77.6647 18.804C77.9607 18.916 78.2847 19.024 78.6367 19.128C78.9887 19.232 79.3127 19.376 79.6087 19.56C79.9047 19.744 80.1527 19.988 80.3527 20.292C80.5527 20.596 80.6527 21 80.6527 21.504C80.6527 21.96 80.5687 22.36 80.4007 22.704C80.2327 23.04 80.0047 23.32 79.7167 23.544C79.4367 23.768 79.1087 23.936 78.7327 24.048C78.3567 24.16 77.9607 24.216 77.5447 24.216C77.0167 24.216 76.5087 24.128 76.0207 23.952C75.5327 23.776 75.1127 23.48 74.7607 23.064L75.9007 21.96C76.0847 22.24 76.3247 22.46 76.6207 22.62C76.9247 22.772 77.2447 22.848 77.5807 22.848C77.7567 22.848 77.9327 22.824 78.1087 22.776C78.2847 22.728 78.4447 22.656 78.5887 22.56C78.7327 22.464 78.8487 22.344 78.9367 22.2C79.0247 22.048 79.0687 21.876 79.0687 21.684C79.0687 21.372 78.9687 21.132 78.7687 20.964C78.5687 20.796 78.3207 20.656 78.0247 20.544C77.7287 20.424 77.4047 20.312 77.0527 20.208C76.7007 20.104 76.3767 19.964 76.0807 19.788C75.7847 19.604 75.5367 19.364 75.3367 19.068C75.1367 18.764 75.0367 18.36 75.0367 17.856C75.0367 17.416 75.1247 17.036 75.3007 16.716C75.4847 16.396 75.7207 16.132 76.0087 15.924C76.3047 15.708 76.6407 15.548 77.0167 15.444C77.3927 15.34 77.7767 15.288 78.1687 15.288C78.6167 15.288 79.0487 15.356 79.4647 15.492C79.8887 15.628 80.2687 15.852 80.6047 16.164L79.5007 17.328ZM86.3913 17.328C86.2313 17.096 86.0153 16.928 85.7433 16.824C85.4793 16.712 85.1993 16.656 84.9033 16.656C84.7273 16.656 84.5553 16.676 84.3873 16.716C84.2273 16.756 84.0793 16.82 83.9433 16.908C83.8153 16.996 83.7113 17.112 83.6313 17.256C83.5513 17.392 83.5113 17.556 83.5113 17.748C83.5113 18.036 83.6113 18.256 83.8113 18.408C84.0113 18.56 84.2593 18.692 84.5553 18.804C84.8513 18.916 85.1753 19.024 85.5273 19.128C85.8793 19.232 86.2033 19.376 86.4993 19.56C86.7953 19.744 87.0433 19.988 87.2433 20.292C87.4433 20.596 87.5433 21 87.5433 21.504C87.5433 21.96 87.4593 22.36 87.2913 22.704C87.1233 23.04 86.8953 23.32 86.6073 23.544C86.3273 23.768 85.9993 23.936 85.6233 24.048C85.2473 24.16 84.8513 24.216 84.4353 24.216C83.9073 24.216 83.3993 24.128 82.9113 23.952C82.4233 23.776 82.0033 23.48 81.6513 23.064L82.7913 21.96C82.9753 22.24 83.2153 22.46 83.5113 22.62C83.8153 22.772 84.1353 22.848 84.4713 22.848C84.6473 22.848 84.8233 22.824 84.9993 22.776C85.1753 22.728 85.3353 22.656 85.4793 22.56C85.6233 22.464 85.7393 22.344 85.8273 22.2C85.9153 22.048 85.9593 21.876 85.9593 21.684C85.9593 21.372 85.8593 21.132 85.6593 20.964C85.4593 20.796 85.2113 20.656 84.9153 20.544C84.6193 20.424 84.2953 20.312 83.9433 20.208C83.5913 20.104 83.2673 19.964 82.9713 19.788C82.6753 19.604 82.4273 19.364 82.2273 19.068C82.0273 18.764 81.9273 18.36 81.9273 17.856C81.9273 17.416 82.0153 17.036 82.1913 16.716C82.3753 16.396 82.6113 16.132 82.8993 15.924C83.1953 15.708 83.5313 15.548 83.9073 15.444C84.2833 15.34 84.6673 15.288 85.0593 15.288C85.5073 15.288 85.9393 15.356 86.3553 15.492C86.7793 15.628 87.1593 15.852 87.4953 16.164L86.3913 17.328Z" fill="white"/>
<path fill-rule="evenodd" clip-rule="evenodd" d="M24.1959 25.63C26.664 27.1964 30.3575 26.5614 32.9594 23.9594C35.8884 21.0305 36.325 16.7184 33.9347 14.3281C31.5443 11.9377 27.2322 12.3744 24.3033 15.3033C21.3744 18.2322 20.9377 22.5443 23.3281 24.9347C23.3733 24.9799 23.4193 25.0242 23.4659 25.0674L25.4449 22.6256L25.4449 19.9299L26.1037 21.9569L27.5249 20.3548L27.2475 18.5189L28.0354 19.6308L30.0759 17.3421L28.6414 19.9299L30.0759 20.3548L28.2617 20.7522L26.668 22.3749L29.1758 22.6256L26.1037 23.2888L24.1959 25.63Z" fill="white"/>
</g>
<defs>
<filter id="filter0_d" x="-5" y="-5" width="130" height="50" filterUnits="userSpaceOnUse" color-interpolation-filters="sRGB">
<feFlood flood-opacity="0" result="BackgroundImageFix"/>
<feColorMatrix in="SourceAlpha" type="matrix" values="0 0 0 0 0 0 0 0 0 0 0 0 0 0 0 0 0 0 127 0"/>
<feOffset/>
<feGaussianBlur stdDeviation="5"/>
<feColorMatrix type="matrix" values="0 0 0 0 0.364706 0 0 0 0 0.745098 0 0 0 0 0.384314 0 0 0 0.7 0"/>
<feBlend mode="normal" in2="BackgroundImageFix" result="effect1_dropShadow"/>
<feBlend mode="normal" in="SourceGraphic" in2="effect1_dropShadow" result="shape"/>
</filter>
<clipPath id="clip0">
<rect width="110" height="30" fill="white" transform="translate(5 5)"/>
</clipPath>
</defs>
</svg>
