<svg width="120" height="40" viewBox="0 0 120 40" fill="none" xmlns="http://www.w3.org/2000/svg">
<g clip-path="url(#clip0)">
<g filter="url(#filter0_d)">
<rect x="5" y="5" width="110" height="30" rx="15" fill="#D78555"/>
</g>
<path d="M49.8905 23.376C48.8425 23.936 47.6705 24.216 46.3745 24.216C45.7185 24.216 45.1145 24.112 44.5625 23.904C44.0185 23.688 43.5465 23.388 43.1465 23.004C42.7545 22.612 42.4465 22.144 42.2225 21.6C41.9985 21.056 41.8865 20.452 41.8865 19.788C41.8865 19.108 41.9985 18.492 42.2225 17.94C42.4465 17.38 42.7545 16.904 43.1465 16.512C43.5465 16.12 44.0185 15.82 44.5625 15.612C45.1145 15.396 45.7185 15.288 46.3745 15.288C47.0225 15.288 47.6305 15.368 48.1985 15.528C48.7665 15.68 49.2745 15.956 49.7225 16.356L48.6065 17.484C48.3345 17.22 48.0025 17.016 47.6105 16.872C47.2265 16.728 46.8185 16.656 46.3865 16.656C45.9465 16.656 45.5465 16.736 45.1865 16.896C44.8345 17.048 44.5305 17.264 44.2745 17.544C44.0185 17.816 43.8185 18.136 43.6745 18.504C43.5385 18.872 43.4705 19.268 43.4705 19.692C43.4705 20.148 43.5385 20.568 43.6745 20.952C43.8185 21.336 44.0185 21.668 44.2745 21.948C44.5305 22.228 44.8345 22.448 45.1865 22.608C45.5465 22.768 45.9465 22.848 46.3865 22.848C46.7705 22.848 47.1305 22.812 47.4665 22.74C47.8105 22.668 48.1145 22.556 48.3785 22.404V20.4H46.6385V19.032H49.8905V23.376ZM51.6824 15.504H54.6344C55.0424 15.504 55.4344 15.544 55.8104 15.624C56.1944 15.696 56.5344 15.824 56.8304 16.008C57.1264 16.192 57.3624 16.44 57.5384 16.752C57.7144 17.064 57.8024 17.46 57.8024 17.94C57.8024 18.556 57.6304 19.072 57.2864 19.488C56.9504 19.904 56.4664 20.156 55.8344 20.244L58.0904 24H56.2664L54.2984 20.4H53.1944V24H51.6824V15.504ZM54.3704 19.104C54.5864 19.104 54.8024 19.096 55.0184 19.08C55.2344 19.056 55.4304 19.008 55.6064 18.936C55.7904 18.856 55.9384 18.74 56.0504 18.588C56.1624 18.428 56.2184 18.208 56.2184 17.928C56.2184 17.68 56.1664 17.48 56.0624 17.328C55.9584 17.176 55.8224 17.064 55.6544 16.992C55.4864 16.912 55.2984 16.86 55.0904 16.836C54.8904 16.812 54.6944 16.8 54.5024 16.8H53.1944V19.104H54.3704ZM58.785 19.788C58.785 19.108 58.897 18.492 59.121 17.94C59.345 17.38 59.653 16.904 60.045 16.512C60.445 16.12 60.917 15.82 61.461 15.612C62.013 15.396 62.617 15.288 63.273 15.288C63.937 15.28 64.545 15.38 65.097 15.588C65.649 15.788 66.125 16.084 66.525 16.476C66.925 16.868 67.237 17.34 67.461 17.892C67.685 18.444 67.797 19.06 67.797 19.74C67.797 20.404 67.685 21.008 67.461 21.552C67.237 22.096 66.925 22.564 66.525 22.956C66.125 23.348 65.649 23.656 65.097 23.88C64.545 24.096 63.937 24.208 63.273 24.216C62.617 24.216 62.013 24.112 61.461 23.904C60.917 23.688 60.445 23.388 60.045 23.004C59.653 22.612 59.345 22.144 59.121 21.6C58.897 21.056 58.785 20.452 58.785 19.788ZM60.369 19.692C60.369 20.148 60.437 20.568 60.573 20.952C60.717 21.336 60.917 21.668 61.173 21.948C61.429 22.228 61.733 22.448 62.085 22.608C62.445 22.768 62.845 22.848 63.285 22.848C63.725 22.848 64.125 22.768 64.485 22.608C64.845 22.448 65.153 22.228 65.409 21.948C65.665 21.668 65.861 21.336 65.997 20.952C66.141 20.568 66.213 20.148 66.213 19.692C66.213 19.268 66.141 18.872 65.997 18.504C65.861 18.136 65.665 17.816 65.409 17.544C65.153 17.264 64.845 17.048 64.485 16.896C64.125 16.736 63.725 16.656 63.285 16.656C62.845 16.656 62.445 16.736 62.085 16.896C61.733 17.048 61.429 17.264 61.173 17.544C60.917 17.816 60.717 18.136 60.573 18.504C60.437 18.872 60.369 19.268 60.369 19.692ZM76.0411 20.88C76.0411 21.392 75.9531 21.856 75.7771 22.272C75.6011 22.68 75.3611 23.028 75.0571 23.316C74.7531 23.604 74.3931 23.828 73.9771 23.988C73.5611 24.14 73.1091 24.216 72.6211 24.216C72.1331 24.216 71.6811 24.14 71.2651 23.988C70.8491 23.828 70.4851 23.604 70.1731 23.316C69.8691 23.028 69.6291 22.68 69.4531 22.272C69.2851 21.856 69.2011 21.392 69.2011 20.88V15.504H70.7131V20.832C70.7131 21.04 70.7451 21.26 70.8091 21.492C70.8731 21.716 70.9771 21.924 71.1211 22.116C71.2731 22.308 71.4691 22.468 71.7091 22.596C71.9571 22.716 72.2611 22.776 72.6211 22.776C72.9811 22.776 73.2811 22.716 73.5211 22.596C73.7691 22.468 73.9651 22.308 74.1091 22.116C74.2611 21.924 74.3691 21.716 74.4331 21.492C74.4971 21.26 74.5291 21.04 74.5291 20.832V15.504H76.0411V20.88ZM77.8972 15.504H79.9012L84.0172 21.816H84.0412V15.504H85.5532V24H83.6332L79.4332 17.484H79.4092V24H77.8972V15.504ZM87.448 15.504H90.796C91.356 15.504 91.896 15.592 92.416 15.768C92.936 15.936 93.396 16.196 93.796 16.548C94.196 16.9 94.516 17.344 94.756 17.88C94.996 18.408 95.116 19.032 95.116 19.752C95.116 20.48 94.976 21.112 94.696 21.648C94.424 22.176 94.068 22.616 93.628 22.968C93.196 23.312 92.712 23.572 92.176 23.748C91.648 23.916 91.128 24 90.616 24H87.448V15.504ZM90.088 22.632C90.56 22.632 91.004 22.58 91.42 22.476C91.844 22.364 92.212 22.196 92.524 21.972C92.836 21.74 93.08 21.444 93.256 21.084C93.44 20.716 93.532 20.272 93.532 19.752C93.532 19.24 93.452 18.8 93.292 18.432C93.132 18.064 92.908 17.768 92.62 17.544C92.34 17.312 92.004 17.144 91.612 17.04C91.228 16.928 90.804 16.872 90.34 16.872H88.96V22.632H90.088Z" fill="white"/>
<path fill-rule="evenodd" clip-rule="evenodd" d="M22.3683 24.9572C22.3074 24.9572 22.2648 24.8969 22.2851 24.8395L26.0738 14.134C26.1023 14.0537 26.1782 14 26.2634 14H30.122C30.2075 14 30.2837 14.0541 30.3119 14.1349L33.9919 24.6898C34.0375 24.8206 33.9404 24.9572 33.802 24.9572H22.3683ZM19.1978 25C19.0574 25 18.9602 24.8598 19.0094 24.7283L21.7478 17.4177C21.7772 17.3392 21.8522 17.2871 21.9361 17.2871H24.0289C24.1683 17.2871 24.2655 17.4256 24.218 17.5567L21.5701 24.8674C21.5413 24.947 21.4657 25 21.381 25H19.1978Z" fill="white"/>
</g>
<defs>
<filter id="filter0_d" x="-5" y="-5" width="130" height="50" filterUnits="userSpaceOnUse" color-interpolation-filters="sRGB">
<feFlood flood-opacity="0" result="BackgroundImageFix"/>
<feColorMatrix in="SourceAlpha" type="matrix" values="0 0 0 0 0 0 0 0 0 0 0 0 0 0 0 0 0 0 127 0"/>
<feOffset/>
<feGaussianBlur stdDeviation="5"/>
<feColorMatrix type="matrix" values="0 0 0 0 0.843137 0 0 0 0 0.521569 0 0 0 0 0.333333 0 0 0 0.7 0"/>
<feBlend mode="normal" in2="BackgroundImageFix" result="effect1_dropShadow"/>
<feBlend mode="normal" in="SourceGraphic" in2="effect1_dropShadow" result="shape"/>
</filter>
<clipPath id="clip0">
<rect width="110" height="30" fill="white" transform="translate(5 5)"/>
</clipPath>
</defs>
</svg>
