<svg width="120" height="40" viewBox="0 0 120 40" fill="none" xmlns="http://www.w3.org/2000/svg">
<g clip-path="url(#clip0)">
<g filter="url(#filter0_d)">
<rect x="5" y="5" width="110" height="30" rx="15" fill="#9A9DA1"/>
</g>
<path d="M42.8992 15.504H44.9032L49.0192 21.816H49.0432V15.504H50.5552V24H48.6352L44.4352 17.484H44.4112V24H42.8992V15.504ZM51.994 19.788C51.994 19.108 52.106 18.492 52.33 17.94C52.554 17.38 52.862 16.904 53.254 16.512C53.654 16.12 54.126 15.82 54.67 15.612C55.222 15.396 55.826 15.288 56.482 15.288C57.146 15.28 57.754 15.38 58.306 15.588C58.858 15.788 59.334 16.084 59.734 16.476C60.134 16.868 60.446 17.34 60.67 17.892C60.894 18.444 61.006 19.06 61.006 19.74C61.006 20.404 60.894 21.008 60.67 21.552C60.446 22.096 60.134 22.564 59.734 22.956C59.334 23.348 58.858 23.656 58.306 23.88C57.754 24.096 57.146 24.208 56.482 24.216C55.826 24.216 55.222 24.112 54.67 23.904C54.126 23.688 53.654 23.388 53.254 23.004C52.862 22.612 52.554 22.144 52.33 21.6C52.106 21.056 51.994 20.452 51.994 19.788ZM53.578 19.692C53.578 20.148 53.646 20.568 53.782 20.952C53.926 21.336 54.126 21.668 54.382 21.948C54.638 22.228 54.942 22.448 55.294 22.608C55.654 22.768 56.054 22.848 56.494 22.848C56.934 22.848 57.334 22.768 57.694 22.608C58.054 22.448 58.362 22.228 58.618 21.948C58.874 21.668 59.07 21.336 59.206 20.952C59.35 20.568 59.422 20.148 59.422 19.692C59.422 19.268 59.35 18.872 59.206 18.504C59.07 18.136 58.874 17.816 58.618 17.544C58.362 17.264 58.054 17.048 57.694 16.896C57.334 16.736 56.934 16.656 56.494 16.656C56.054 16.656 55.654 16.736 55.294 16.896C54.942 17.048 54.638 17.264 54.382 17.544C54.126 17.816 53.926 18.136 53.782 18.504C53.646 18.872 53.578 19.268 53.578 19.692ZM62.446 15.504H65.398C65.806 15.504 66.198 15.544 66.574 15.624C66.958 15.696 67.298 15.824 67.594 16.008C67.89 16.192 68.126 16.44 68.302 16.752C68.478 17.064 68.566 17.46 68.566 17.94C68.566 18.556 68.394 19.072 68.05 19.488C67.714 19.904 67.23 20.156 66.598 20.244L68.854 24H67.03L65.062 20.4H63.958V24H62.446V15.504ZM65.134 19.104C65.35 19.104 65.566 19.096 65.782 19.08C65.998 19.056 66.194 19.008 66.37 18.936C66.554 18.856 66.702 18.74 66.814 18.588C66.926 18.428 66.982 18.208 66.982 17.928C66.982 17.68 66.93 17.48 66.826 17.328C66.722 17.176 66.586 17.064 66.418 16.992C66.25 16.912 66.062 16.86 65.854 16.836C65.654 16.812 65.458 16.8 65.266 16.8H63.958V19.104H65.134ZM70.0406 15.504H72.3446L74.6126 21.456L76.9046 15.504H79.1846V24H77.7446V16.944H77.7206L75.1406 24H74.0846L71.5046 16.944H71.4806V24H70.0406V15.504ZM83.862 15.504H85.17L88.83 24H87.102L86.31 22.056H82.626L81.858 24H80.166L83.862 15.504ZM85.782 20.76L84.474 17.304L83.142 20.76H85.782ZM89.7742 15.504H91.2862V22.632H94.8982V24H89.7742V15.504Z" fill="white"/>
<path fill-rule="evenodd" clip-rule="evenodd" d="M26 27C29.866 27 33 23.866 33 20C33 16.134 29.866 13 26 13C22.134 13 19 16.134 19 20C19 23.866 22.134 27 26 27ZM26 24C28.2091 24 30 22.2091 30 20C30 17.7909 28.2091 16 26 16C23.7909 16 22 17.7909 22 20C22 22.2091 23.7909 24 26 24Z" fill="white"/>
</g>
<defs>
<filter id="filter0_d" x="-5" y="-5" width="130" height="50" filterUnits="userSpaceOnUse" color-interpolation-filters="sRGB">
<feFlood flood-opacity="0" result="BackgroundImageFix"/>
<feColorMatrix in="SourceAlpha" type="matrix" values="0 0 0 0 0 0 0 0 0 0 0 0 0 0 0 0 0 0 127 0"/>
<feOffset/>
<feGaussianBlur stdDeviation="5"/>
<feColorMatrix type="matrix" values="0 0 0 0 0.603922 0 0 0 0 0.615686 0 0 0 0 0.631373 0 0 0 0.7 0"/>
<feBlend mode="normal" in2="BackgroundImageFix" result="effect1_dropShadow"/>
<feBlend mode="normal" in="SourceGraphic" in2="effect1_dropShadow" result="shape"/>
</filter>
<clipPath id="clip0">
<rect width="110" height="30" fill="white" transform="translate(5 5)"/>
</clipPath>
</defs>
</svg>
