<svg width="120" height="40" viewBox="0 0 120 40" fill="none" xmlns="http://www.w3.org/2000/svg">
<g clip-path="url(#clip0)">
<g filter="url(#filter0_d)">
<rect x="5" y="5" width="110" height="30" rx="15" fill="#9DC130"/>
</g>
<path d="M56.5574 15.504H59.8694C60.1894 15.504 60.5054 15.544 60.8174 15.624C61.1294 15.696 61.4054 15.82 61.6454 15.996C61.8934 16.164 62.0934 16.384 62.2454 16.656C62.3974 16.928 62.4734 17.256 62.4734 17.64C62.4734 18.12 62.3374 18.516 62.0654 18.828C61.7934 19.14 61.4374 19.364 60.9974 19.5V19.524C61.2614 19.556 61.5054 19.632 61.7294 19.752C61.9614 19.864 62.1574 20.012 62.3174 20.196C62.4774 20.372 62.6014 20.58 62.6894 20.82C62.7854 21.052 62.8334 21.304 62.8334 21.576C62.8334 22.04 62.7414 22.428 62.5574 22.74C62.3734 23.044 62.1294 23.292 61.8254 23.484C61.5294 23.668 61.1854 23.8 60.7934 23.88C60.4094 23.96 60.0174 24 59.6174 24H56.5574V15.504ZM58.0694 18.96H59.4494C59.9534 18.96 60.3294 18.864 60.5774 18.672C60.8334 18.472 60.9614 18.212 60.9614 17.892C60.9614 17.524 60.8294 17.252 60.5654 17.076C60.3094 16.892 59.8934 16.8 59.3174 16.8H58.0694V18.96ZM58.0694 22.704H59.4614C59.6534 22.704 59.8574 22.692 60.0734 22.668C60.2974 22.644 60.5014 22.588 60.6854 22.5C60.8694 22.412 61.0214 22.288 61.1414 22.128C61.2614 21.96 61.3214 21.736 61.3214 21.456C61.3214 21.008 61.1734 20.696 60.8774 20.52C60.5894 20.344 60.1374 20.256 59.5214 20.256H58.0694V22.704ZM71.1426 20.88C71.1426 21.392 71.0546 21.856 70.8786 22.272C70.7026 22.68 70.4626 23.028 70.1586 23.316C69.8546 23.604 69.4946 23.828 69.0786 23.988C68.6626 24.14 68.2106 24.216 67.7226 24.216C67.2346 24.216 66.7826 24.14 66.3666 23.988C65.9506 23.828 65.5866 23.604 65.2746 23.316C64.9706 23.028 64.7306 22.68 64.5546 22.272C64.3866 21.856 64.3026 21.392 64.3026 20.88V15.504H65.8146V20.832C65.8146 21.04 65.8466 21.26 65.9106 21.492C65.9746 21.716 66.0786 21.924 66.2226 22.116C66.3746 22.308 66.5706 22.468 66.8106 22.596C67.0586 22.716 67.3626 22.776 67.7226 22.776C68.0826 22.776 68.3826 22.716 68.6226 22.596C68.8706 22.468 69.0666 22.308 69.2106 22.116C69.3626 21.924 69.4706 21.716 69.5346 21.492C69.5986 21.26 69.6306 21.04 69.6306 20.832V15.504H71.1426V20.88ZM80.5468 23.376C79.4988 23.936 78.3268 24.216 77.0308 24.216C76.3748 24.216 75.7708 24.112 75.2188 23.904C74.6748 23.688 74.2028 23.388 73.8028 23.004C73.4108 22.612 73.1028 22.144 72.8788 21.6C72.6548 21.056 72.5428 20.452 72.5428 19.788C72.5428 19.108 72.6548 18.492 72.8788 17.94C73.1028 17.38 73.4108 16.904 73.8028 16.512C74.2028 16.12 74.6748 15.82 75.2188 15.612C75.7708 15.396 76.3748 15.288 77.0308 15.288C77.6788 15.288 78.2868 15.368 78.8548 15.528C79.4228 15.68 79.9308 15.956 80.3788 16.356L79.2628 17.484C78.9908 17.22 78.6588 17.016 78.2668 16.872C77.8828 16.728 77.4748 16.656 77.0428 16.656C76.6028 16.656 76.2028 16.736 75.8428 16.896C75.4908 17.048 75.1868 17.264 74.9308 17.544C74.6748 17.816 74.4748 18.136 74.3308 18.504C74.1948 18.872 74.1268 19.268 74.1268 19.692C74.1268 20.148 74.1948 20.568 74.3308 20.952C74.4748 21.336 74.6748 21.668 74.9308 21.948C75.1868 22.228 75.4908 22.448 75.8428 22.608C76.2028 22.768 76.6028 22.848 77.0428 22.848C77.4268 22.848 77.7868 22.812 78.1228 22.74C78.4668 22.668 78.7708 22.556 79.0348 22.404V20.4H77.2948V19.032H80.5468V23.376Z" fill="white"/>
<path fill-rule="evenodd" clip-rule="evenodd" d="M28.3547 12.3209C28.5923 11.9817 29.0599 11.8992 29.3992 12.1368C29.7384 12.3743 29.8209 12.8419 29.5833 13.1812L28.3678 14.9171C29.1573 15.1693 29.6952 15.4414 29.6952 15.4414C29.6952 15.4414 28.3805 17.7029 26.1506 17.7029C23.9206 17.7029 22.3361 15.5951 22.3361 15.5951C22.3361 15.5951 22.8979 15.2365 23.7308 14.929L22.4073 13.3518C22.1411 13.0345 22.1825 12.5615 22.4998 12.2953C22.817 12.029 23.29 12.0704 23.5563 12.3877L25.2491 14.4052C25.2828 14.4453 25.3115 14.4878 25.3353 14.5321C25.5344 14.5089 25.7374 14.4959 25.9423 14.4959C26.2296 14.4959 26.5167 14.5179 26.7968 14.5552C26.8109 14.529 26.8266 14.5033 26.8441 14.4783L28.3547 12.3209ZM22.7956 17.8099C22.2005 17.3849 21.3001 16.2757 21.3001 16.2757C21.3001 16.2757 19 18.0983 19 21.9631C19 25.8278 22.9764 28.1538 22.9764 28.1538C22.9764 28.1538 24.8763 26.2352 25.3427 23.803C25.8091 21.3708 24.6528 18.6701 24.6528 18.6701C24.6528 18.6701 23.3907 18.2349 22.7956 17.8099ZM29.2044 17.8099C29.7995 17.3849 30.6999 16.2757 30.6999 16.2757C30.6999 16.2757 33 18.0983 33 21.9631C33 25.8278 29.0236 28.1538 29.0236 28.1538C29.0236 28.1538 27.1237 26.2352 26.6573 23.803C26.1909 21.3708 27.3472 18.6701 27.3472 18.6701C27.3472 18.6701 28.6093 18.2349 29.2044 17.8099Z" fill="white"/>
</g>
<defs>
<filter id="filter0_d" x="-5" y="-5" width="130" height="50" filterUnits="userSpaceOnUse" color-interpolation-filters="sRGB">
<feFlood flood-opacity="0" result="BackgroundImageFix"/>
<feColorMatrix in="SourceAlpha" type="matrix" values="0 0 0 0 0 0 0 0 0 0 0 0 0 0 0 0 0 0 127 0"/>
<feOffset/>
<feGaussianBlur stdDeviation="5"/>
<feColorMatrix type="matrix" values="0 0 0 0 0.615686 0 0 0 0 0.756863 0 0 0 0 0.188235 0 0 0 0.7 0"/>
<feBlend mode="normal" in2="BackgroundImageFix" result="effect1_dropShadow"/>
<feBlend mode="normal" in="SourceGraphic" in2="effect1_dropShadow" result="shape"/>
</filter>
<clipPath id="clip0">
<rect width="110" height="30" fill="white" transform="translate(5 5)"/>
</clipPath>
</defs>
</svg>
