<svg width="120" height="40" viewBox="0 0 120 40" fill="none" xmlns="http://www.w3.org/2000/svg">
<g clip-path="url(#clip0)">
<g filter="url(#filter0_d)">
<rect x="5" y="5" width="110" height="30" rx="15" fill="#EDD53F"/>
</g>
<path d="M41.8914 15.504H47.5194V16.872H43.4034V18.96H47.3034V20.328H43.4034V22.632H47.7354V24H41.8914V15.504ZM49.2273 15.504H50.7393V22.632H54.3513V24H49.2273V15.504ZM55.45 15.504H61.078V16.872H56.962V18.96H60.862V20.328H56.962V22.632H61.294V24H55.45V15.504ZM68.6179 17.496C68.3059 17.16 68.0019 16.936 67.7059 16.824C67.4179 16.712 67.1259 16.656 66.8299 16.656C66.3899 16.656 65.9899 16.736 65.6299 16.896C65.2779 17.048 64.9739 17.264 64.7179 17.544C64.4619 17.816 64.2619 18.136 64.1179 18.504C63.9819 18.872 63.9139 19.268 63.9139 19.692C63.9139 20.148 63.9819 20.568 64.1179 20.952C64.2619 21.336 64.4619 21.668 64.7179 21.948C64.9739 22.228 65.2779 22.448 65.6299 22.608C65.9899 22.768 66.3899 22.848 66.8299 22.848C67.1739 22.848 67.5059 22.768 67.8259 22.608C68.1539 22.44 68.4579 22.176 68.7379 21.816L69.9859 22.704C69.6019 23.232 69.1339 23.616 68.5819 23.856C68.0299 24.096 67.4419 24.216 66.8179 24.216C66.1619 24.216 65.5579 24.112 65.0059 23.904C64.4619 23.688 63.9899 23.388 63.5899 23.004C63.1979 22.612 62.8899 22.144 62.6659 21.6C62.4419 21.056 62.3299 20.452 62.3299 19.788C62.3299 19.108 62.4419 18.492 62.6659 17.94C62.8899 17.38 63.1979 16.904 63.5899 16.512C63.9899 16.12 64.4619 15.82 65.0059 15.612C65.5579 15.396 66.1619 15.288 66.8179 15.288C67.3939 15.288 67.9259 15.392 68.4139 15.6C68.9099 15.8 69.3699 16.144 69.7939 16.632L68.6179 17.496ZM72.7407 16.872H70.1367V15.504H76.8567V16.872H74.2527V24H72.7407V16.872ZM77.8914 15.504H80.8434C81.2514 15.504 81.6434 15.544 82.0194 15.624C82.4034 15.696 82.7434 15.824 83.0394 16.008C83.3354 16.192 83.5714 16.44 83.7474 16.752C83.9234 17.064 84.0114 17.46 84.0114 17.94C84.0114 18.556 83.8394 19.072 83.4954 19.488C83.1594 19.904 82.6754 20.156 82.0434 20.244L84.2994 24H82.4754L80.5074 20.4H79.4034V24H77.8914V15.504ZM80.5794 19.104C80.7954 19.104 81.0114 19.096 81.2274 19.08C81.4434 19.056 81.6394 19.008 81.8154 18.936C81.9994 18.856 82.1474 18.74 82.2594 18.588C82.3714 18.428 82.4274 18.208 82.4274 17.928C82.4274 17.68 82.3754 17.48 82.2714 17.328C82.1674 17.176 82.0314 17.064 81.8634 16.992C81.6954 16.912 81.5074 16.86 81.2994 16.836C81.0994 16.812 80.9034 16.8 80.7114 16.8H79.4034V19.104H80.5794ZM85.414 15.504H86.926V24H85.414V15.504ZM94.6218 17.496C94.3098 17.16 94.0058 16.936 93.7098 16.824C93.4218 16.712 93.1298 16.656 92.8338 16.656C92.3938 16.656 91.9938 16.736 91.6338 16.896C91.2818 17.048 90.9778 17.264 90.7218 17.544C90.4658 17.816 90.2658 18.136 90.1218 18.504C89.9858 18.872 89.9178 19.268 89.9178 19.692C89.9178 20.148 89.9858 20.568 90.1218 20.952C90.2658 21.336 90.4658 21.668 90.7218 21.948C90.9778 22.228 91.2818 22.448 91.6338 22.608C91.9938 22.768 92.3938 22.848 92.8338 22.848C93.1778 22.848 93.5098 22.768 93.8298 22.608C94.1578 22.44 94.4618 22.176 94.7418 21.816L95.9898 22.704C95.6058 23.232 95.1378 23.616 94.5858 23.856C94.0338 24.096 93.4458 24.216 92.8218 24.216C92.1658 24.216 91.5618 24.112 91.0098 23.904C90.4658 23.688 89.9938 23.388 89.5938 23.004C89.2018 22.612 88.8938 22.144 88.6698 21.6C88.4458 21.056 88.3338 20.452 88.3338 19.788C88.3338 19.108 88.4458 18.492 88.6698 17.94C88.8938 17.38 89.2018 16.904 89.5938 16.512C89.9938 16.12 90.4658 15.82 91.0098 15.612C91.5618 15.396 92.1658 15.288 92.8218 15.288C93.3978 15.288 93.9298 15.392 94.4178 15.6C94.9138 15.8 95.3738 16.144 95.7978 16.632L94.6218 17.496Z" fill="white"/>
<path fill-rule="evenodd" clip-rule="evenodd" d="M20.9632 12.5837C20.8643 12.298 21.0765 12 21.3788 12H26.086C26.2788 12 26.4492 12.1256 26.5062 12.3098L28.8236 19.797C28.9112 20.08 28.6997 20.3669 28.4034 20.3669H25.5221C25.3762 20.3669 25.2707 20.5065 25.3106 20.6469L26.7536 25.7265C26.8867 26.1953 26.2718 26.5005 25.9789 26.111L19.5295 17.5343C19.3115 17.2444 19.5184 16.8301 19.881 16.8301H22.1238C22.275 16.8301 22.3811 16.6811 22.3316 16.5383L20.9632 12.5837Z" fill="white"/>
</g>
<defs>
<filter id="filter0_d" x="-5" y="-5" width="130" height="50" filterUnits="userSpaceOnUse" color-interpolation-filters="sRGB">
<feFlood flood-opacity="0" result="BackgroundImageFix"/>
<feColorMatrix in="SourceAlpha" type="matrix" values="0 0 0 0 0 0 0 0 0 0 0 0 0 0 0 0 0 0 127 0"/>
<feOffset/>
<feGaussianBlur stdDeviation="5"/>
<feColorMatrix type="matrix" values="0 0 0 0 0.929412 0 0 0 0 0.835294 0 0 0 0 0.247059 0 0 0 0.7 0"/>
<feBlend mode="normal" in2="BackgroundImageFix" result="effect1_dropShadow"/>
<feBlend mode="normal" in="SourceGraphic" in2="effect1_dropShadow" result="shape"/>
</filter>
<clipPath id="clip0">
<rect width="110" height="30" fill="white" transform="translate(5 5)"/>
</clipPath>
</defs>
</svg>
