<svg width="120" height="40" viewBox="0 0 120 40" fill="none" xmlns="http://www.w3.org/2000/svg">
<g clip-path="url(#clip0)">
<g filter="url(#filter0_d)">
<rect x="5" y="5" width="110" height="30" rx="15" fill="#EF97E6"/>
</g>
<path d="M52.9949 15.504H58.4789V16.872H54.5069V19.104H58.2509V20.472H54.5069V24H52.9949V15.504ZM61.9773 15.504H63.2853L66.9453 24H65.2173L64.4253 22.056H60.7413L59.9733 24H58.2812L61.9773 15.504ZM63.8973 20.76L62.5893 17.304L61.2573 20.76H63.8973ZM67.8534 15.504H69.3654V24H67.8534V15.504ZM71.2293 15.504H74.1813C74.5893 15.504 74.9813 15.544 75.3573 15.624C75.7413 15.696 76.0813 15.824 76.3773 16.008C76.6733 16.192 76.9093 16.44 77.0853 16.752C77.2613 17.064 77.3493 17.46 77.3493 17.94C77.3493 18.556 77.1773 19.072 76.8333 19.488C76.4973 19.904 76.0133 20.156 75.3813 20.244L77.6373 24H75.8133L73.8453 20.4H72.7413V24H71.2293V15.504ZM73.9173 19.104C74.1333 19.104 74.3493 19.096 74.5653 19.08C74.7813 19.056 74.9773 19.008 75.1533 18.936C75.3373 18.856 75.4853 18.74 75.5973 18.588C75.7093 18.428 75.7653 18.208 75.7653 17.928C75.7653 17.68 75.7133 17.48 75.6093 17.328C75.5053 17.176 75.3693 17.064 75.2013 16.992C75.0333 16.912 74.8453 16.86 74.6373 16.836C74.4373 16.812 74.2413 16.8 74.0493 16.8H72.7413V19.104H73.9173ZM80.4185 20.364L77.2265 15.504H79.1225L81.2105 18.888L83.3225 15.504H85.1225L81.9305 20.364V24H80.4185V20.364Z" fill="white"/>
<path fill-rule="evenodd" clip-rule="evenodd" d="M22.2701 23.9239L24.3448 23.3223L26.2872 26.8738C26.3792 27.042 26.6208 27.042 26.7128 26.8738L28.6552 23.3223L30.7299 23.9239C30.9141 23.9773 31.0845 23.806 31.0301 23.6221L30.4306 21.596L33.8738 19.7128C34.042 19.6208 34.042 19.3792 33.8738 19.2872L30.3991 17.3868L31.0301 15.2543C31.0845 15.0704 30.9141 14.8991 30.7299 14.9525L28.5968 15.571L26.7128 12.1262C26.6208 11.958 26.3792 11.958 26.2872 12.1262L24.4032 15.571L22.2701 14.9525C22.0859 14.8991 21.9155 15.0704 21.9699 15.2543L22.6009 17.3868L19.1262 19.2872C18.958 19.3792 18.958 19.6208 19.1262 19.7128L22.5694 21.596L21.9699 23.6221C21.9155 23.806 22.0859 23.9773 22.2701 23.9239ZM24.1649 19.7332L25.55 20.4907L26.3075 21.8758C26.3995 22.044 26.6412 22.044 26.7332 21.8758L27.4907 20.4907L28.8758 19.7332C29.044 19.6412 29.044 19.3995 28.8758 19.3075L27.4907 18.55L26.7332 17.1649C26.6412 16.9966 26.3995 16.9966 26.3075 17.1649L25.55 18.55L24.1649 19.3075C23.9966 19.3995 23.9966 19.6412 24.1649 19.7332Z" fill="white"/>
</g>
<defs>
<filter id="filter0_d" x="-5" y="-5" width="130" height="50" filterUnits="userSpaceOnUse" color-interpolation-filters="sRGB">
<feFlood flood-opacity="0" result="BackgroundImageFix"/>
<feColorMatrix in="SourceAlpha" type="matrix" values="0 0 0 0 0 0 0 0 0 0 0 0 0 0 0 0 0 0 127 0"/>
<feOffset/>
<feGaussianBlur stdDeviation="5"/>
<feColorMatrix type="matrix" values="0 0 0 0 0.937255 0 0 0 0 0.592157 0 0 0 0 0.901961 0 0 0 0.7 0"/>
<feBlend mode="normal" in2="BackgroundImageFix" result="effect1_dropShadow"/>
<feBlend mode="normal" in="SourceGraphic" in2="effect1_dropShadow" result="shape"/>
</filter>
<clipPath id="clip0">
<rect width="110" height="30" fill="white" transform="translate(5 5)"/>
</clipPath>
</defs>
</svg>
