<svg width="120" height="40" viewBox="0 0 120 40" fill="none" xmlns="http://www.w3.org/2000/svg">
<g clip-path="url(#clip0)">
<g filter="url(#filter0_d)">
<rect x="5" y="5" width="110" height="30" rx="15" fill="#D94256"/>
</g>
<path d="M51.7703 15.504H57.2543V16.872H53.2823V19.104H57.0263V20.472H53.2823V24H51.7703V15.504ZM58.6249 15.504H60.1369V24H58.6249V15.504ZM69.5487 23.376C68.5007 23.936 67.3287 24.216 66.0327 24.216C65.3767 24.216 64.7727 24.112 64.2207 23.904C63.6767 23.688 63.2047 23.388 62.8047 23.004C62.4127 22.612 62.1047 22.144 61.8807 21.6C61.6567 21.056 61.5447 20.452 61.5447 19.788C61.5447 19.108 61.6567 18.492 61.8807 17.94C62.1047 17.38 62.4127 16.904 62.8047 16.512C63.2047 16.12 63.6767 15.82 64.2207 15.612C64.7727 15.396 65.3767 15.288 66.0327 15.288C66.6807 15.288 67.2887 15.368 67.8567 15.528C68.4247 15.68 68.9327 15.956 69.3807 16.356L68.2647 17.484C67.9927 17.22 67.6607 17.016 67.2687 16.872C66.8847 16.728 66.4767 16.656 66.0447 16.656C65.6047 16.656 65.2047 16.736 64.8447 16.896C64.4927 17.048 64.1887 17.264 63.9327 17.544C63.6767 17.816 63.4767 18.136 63.3327 18.504C63.1967 18.872 63.1287 19.268 63.1287 19.692C63.1287 20.148 63.1967 20.568 63.3327 20.952C63.4767 21.336 63.6767 21.668 63.9327 21.948C64.1887 22.228 64.4927 22.448 64.8447 22.608C65.2047 22.768 65.6047 22.848 66.0447 22.848C66.4287 22.848 66.7887 22.812 67.1247 22.74C67.4687 22.668 67.7727 22.556 68.0367 22.404V20.4H66.2967V19.032H69.5487V23.376ZM71.3406 15.504H72.8526V18.888H76.8246V15.504H78.3366V24H76.8246V20.256H72.8526V24H71.3406V15.504ZM81.9751 16.872H79.3711V15.504H86.0911V16.872H83.4871V24H81.9751V16.872Z" fill="white"/>
<path fill-rule="evenodd" clip-rule="evenodd" d="M21.0869 13.2471C21.2684 12.5303 21.9177 12 22.6909 12C23.2733 12 23.7854 12.3009 24.0802 12.7557C24.1257 12.7519 24.1717 12.75 24.2182 12.75C24.3255 12.75 24.4304 12.7602 24.5321 12.7797C24.8342 12.4539 25.266 12.25 25.7455 12.25C26.4267 12.25 27.0118 12.6618 27.2655 13.25L27.2727 13.25C27.3904 13.25 27.5052 13.2623 27.6159 13.2856C27.8808 13.1054 28.2008 13 28.5455 13C29.2607 13 29.8699 13.4538 30.1009 14.0892C30.2263 14.1322 30.3448 14.1898 30.4545 14.2601C30.7117 14.0955 31.0174 14 31.3455 14C32.2592 14 33 14.7408 33 15.6545V20.625V20.7056C33 20.736 32.9992 20.7663 32.9975 20.7964C32.8978 24.238 29.8031 27 26 27C22.134 27 19 24.1458 19 20.625C19 18.9255 19.7302 17.3813 20.9205 16.2385C20.9175 17.8965 20.9455 19.6111 21.0745 19.5817C21.42 19.5029 21.1501 14.3687 21.0869 13.2471Z" fill="white"/>
</g>
<defs>
<filter id="filter0_d" x="-5" y="-5" width="130" height="50" filterUnits="userSpaceOnUse" color-interpolation-filters="sRGB">
<feFlood flood-opacity="0" result="BackgroundImageFix"/>
<feColorMatrix in="SourceAlpha" type="matrix" values="0 0 0 0 0 0 0 0 0 0 0 0 0 0 0 0 0 0 127 0"/>
<feOffset/>
<feGaussianBlur stdDeviation="5"/>
<feColorMatrix type="matrix" values="0 0 0 0 0.85098 0 0 0 0 0.258824 0 0 0 0 0.337255 0 0 0 0.7 0"/>
<feBlend mode="normal" in2="BackgroundImageFix" result="effect1_dropShadow"/>
<feBlend mode="normal" in="SourceGraphic" in2="effect1_dropShadow" result="shape"/>
</filter>
<clipPath id="clip0">
<rect width="110" height="30" fill="white" transform="translate(5 5)"/>
</clipPath>
</defs>
</svg>
