<svg width="120" height="40" viewBox="0 0 120 40" fill="none" xmlns="http://www.w3.org/2000/svg">
<g clip-path="url(#clip0)">
<g filter="url(#filter0_d)">
<rect x="5" y="5" width="110" height="30" rx="15" fill="#F8A54F"/>
</g>
<path d="M56.8855 15.504H62.3695V16.872H58.3975V19.104H62.1415V20.472H58.3975V24H56.8855V15.504ZM63.7401 15.504H65.2521V24H63.7401V15.504ZM67.116 15.504H70.068C70.476 15.504 70.868 15.544 71.244 15.624C71.628 15.696 71.968 15.824 72.264 16.008C72.56 16.192 72.796 16.44 72.972 16.752C73.148 17.064 73.236 17.46 73.236 17.94C73.236 18.556 73.064 19.072 72.72 19.488C72.384 19.904 71.9 20.156 71.268 20.244L73.524 24H71.7L69.732 20.4H68.628V24H67.116V15.504ZM69.804 19.104C70.02 19.104 70.236 19.096 70.452 19.08C70.668 19.056 70.864 19.008 71.04 18.936C71.224 18.856 71.372 18.74 71.484 18.588C71.596 18.428 71.652 18.208 71.652 17.928C71.652 17.68 71.6 17.48 71.496 17.328C71.392 17.176 71.256 17.064 71.088 16.992C70.92 16.912 70.732 16.86 70.524 16.836C70.324 16.812 70.128 16.8 69.936 16.8H68.628V19.104H69.804ZM74.6746 15.504H80.3026V16.872H76.1866V18.96H80.0866V20.328H76.1866V22.632H80.5186V24H74.6746V15.504Z" fill="white"/>
<path fill-rule="evenodd" clip-rule="evenodd" d="M27.4855 23.44C27.6685 22.7708 27.3133 21.3949 27.3133 21.3949C27.3133 21.3949 27.0556 22.5157 26.6529 22.93C26.3095 23.2834 25.8886 23.5285 25.2851 23.5929C25.7785 23.3532 26.1179 22.8534 26.1179 22.2757C26.1179 21.4649 25.4492 20.8075 24.6243 20.8075C23.7994 20.8075 23.1307 21.4649 23.1307 22.2757C23.1307 22.4972 23.1806 22.7072 23.2699 22.8955C22.754 22.4845 22.6728 21.8255 22.6728 21.8255C22.6728 21.8255 22.0967 24.2174 23.6842 25.3426C25.2716 26.4678 28.3813 25.5006 28.3813 25.5006C28.3813 25.5006 23.9311 28.6319 20.6335 25.2239C17.7929 22.2882 19.8921 18.4232 19.8921 18.4232C19.8921 18.4232 19.8014 18.7818 19.8014 19.198C19.8014 19.6142 20.0271 19.9309 20.0271 19.9309C20.0271 19.9309 20.7002 18.512 21.2241 17.935C21.7199 17.3889 22.3414 16.946 22.8782 16.5635C23.2914 16.269 23.6545 16.0102 23.8713 15.7678C25.0656 14.4324 24.3333 12 24.3333 12C24.3333 12 25.6796 13.1868 26.0554 14.7197C26.1987 15.3039 26.1065 15.9687 26.0241 16.5632C25.8903 17.5283 25.7822 18.3081 26.7487 18.2575C28.3106 18.1758 26.9534 15.7678 26.9534 15.7678C26.9534 15.7678 30.4963 17.6299 30.2316 20.8867C29.9669 24.1435 26.359 24.8839 26.359 24.8839C26.359 24.8839 27.3025 24.1093 27.4855 23.44Z" fill="white"/>
</g>
<defs>
<filter id="filter0_d" x="-5" y="-5" width="130" height="50" filterUnits="userSpaceOnUse" color-interpolation-filters="sRGB">
<feFlood flood-opacity="0" result="BackgroundImageFix"/>
<feColorMatrix in="SourceAlpha" type="matrix" values="0 0 0 0 0 0 0 0 0 0 0 0 0 0 0 0 0 0 127 0"/>
<feOffset/>
<feGaussianBlur stdDeviation="5"/>
<feColorMatrix type="matrix" values="0 0 0 0 0.972549 0 0 0 0 0.647059 0 0 0 0 0.309804 0 0 0 0.7 0"/>
<feBlend mode="normal" in2="BackgroundImageFix" result="effect1_dropShadow"/>
<feBlend mode="normal" in="SourceGraphic" in2="effect1_dropShadow" result="shape"/>
</filter>
<clipPath id="clip0">
<rect width="110" height="30" fill="white" transform="translate(5 5)"/>
</clipPath>
</defs>
</svg>
