<svg width="120" height="40" viewBox="0 0 120 40" fill="none" xmlns="http://www.w3.org/2000/svg">
<g clip-path="url(#clip0)">
<g filter="url(#filter0_d)">
<rect x="5" y="5" width="110" height="30" rx="15" fill="#7ED4C9"/>
</g>
<path d="M59.9667 15.504H61.4787V24H59.9667V15.504ZM69.1745 17.496C68.8625 17.16 68.5585 16.936 68.2625 16.824C67.9745 16.712 67.6825 16.656 67.3865 16.656C66.9465 16.656 66.5465 16.736 66.1865 16.896C65.8345 17.048 65.5305 17.264 65.2745 17.544C65.0185 17.816 64.8185 18.136 64.6745 18.504C64.5385 18.872 64.4705 19.268 64.4705 19.692C64.4705 20.148 64.5385 20.568 64.6745 20.952C64.8185 21.336 65.0185 21.668 65.2745 21.948C65.5305 22.228 65.8345 22.448 66.1865 22.608C66.5465 22.768 66.9465 22.848 67.3865 22.848C67.7305 22.848 68.0625 22.768 68.3825 22.608C68.7105 22.44 69.0145 22.176 69.2945 21.816L70.5425 22.704C70.1585 23.232 69.6905 23.616 69.1385 23.856C68.5865 24.096 67.9985 24.216 67.3745 24.216C66.7185 24.216 66.1145 24.112 65.5625 23.904C65.0185 23.688 64.5465 23.388 64.1465 23.004C63.7545 22.612 63.4465 22.144 63.2225 21.6C62.9985 21.056 62.8865 20.452 62.8865 19.788C62.8865 19.108 62.9985 18.492 63.2225 17.94C63.4465 17.38 63.7545 16.904 64.1465 16.512C64.5465 16.12 65.0185 15.82 65.5625 15.612C66.1145 15.396 66.7185 15.288 67.3745 15.288C67.9505 15.288 68.4825 15.392 68.9705 15.6C69.4665 15.8 69.9265 16.144 70.3505 16.632L69.1745 17.496ZM71.5574 15.504H77.1854V16.872H73.0694V18.96H76.9694V20.328H73.0694V22.632H77.4014V24H71.5574V15.504Z" fill="white"/>
<path fill-rule="evenodd" clip-rule="evenodd" d="M31.653 12.3357L31.7051 16.9134L27.7124 18.8301L27.6631 14.5079L31.653 12.3357Z" fill="white"/>
<path fill-rule="evenodd" clip-rule="evenodd" d="M35.6554 19.549L31.7029 21.8098L27.7481 19.5454L31.7009 17.4691L35.6554 19.549Z" fill="white"/>
<path fill-rule="evenodd" clip-rule="evenodd" d="M27.0451 19.549L23.0925 21.8098L19.1377 19.5454L23.0905 17.4691L27.0451 19.549Z" fill="white"/>
<path fill-rule="evenodd" clip-rule="evenodd" d="M23.0481 12.317L27.1505 14.3487L27.0457 18.7764L23.1722 16.858L23.0481 12.317Z" fill="white"/>
<path fill-rule="evenodd" clip-rule="evenodd" d="M31.7646 26.7118L27.6622 24.68L27.7671 20.2523L31.6405 22.1707L31.7646 26.7118Z" fill="white"/>
<path fill-rule="evenodd" clip-rule="evenodd" d="M23.1898 26.753L23.1377 22.1753L27.1304 20.2586L27.1796 24.5808L23.1898 26.753Z" fill="white"/>
</g>
<defs>
<filter id="filter0_d" x="-5" y="-5" width="130" height="50" filterUnits="userSpaceOnUse" color-interpolation-filters="sRGB">
<feFlood flood-opacity="0" result="BackgroundImageFix"/>
<feColorMatrix in="SourceAlpha" type="matrix" values="0 0 0 0 0 0 0 0 0 0 0 0 0 0 0 0 0 0 127 0"/>
<feOffset/>
<feGaussianBlur stdDeviation="5"/>
<feColorMatrix type="matrix" values="0 0 0 0 0.494118 0 0 0 0 0.831373 0 0 0 0 0.788235 0 0 0 0.7 0"/>
<feBlend mode="normal" in2="BackgroundImageFix" result="effect1_dropShadow"/>
<feBlend mode="normal" in="SourceGraphic" in2="effect1_dropShadow" result="shape"/>
</filter>
<clipPath id="clip0">
<rect width="110" height="30" fill="white" transform="translate(5 5)"/>
</clipPath>
</defs>
</svg>
