<svg width="120" height="40" viewBox="0 0 120 40" fill="none" xmlns="http://www.w3.org/2000/svg">
<g clip-path="url(#clip0)">
<g filter="url(#filter0_d)">
<rect x="5" y="5" width="110" height="30" rx="15" fill="#B563CE"/>
</g>
<path d="M45.8933 15.504H48.7493C49.1573 15.504 49.5493 15.544 49.9253 15.624C50.3093 15.704 50.6453 15.84 50.9333 16.032C51.2213 16.216 51.4493 16.468 51.6173 16.788C51.7933 17.1 51.8813 17.492 51.8813 17.964C51.8813 18.5 51.7893 18.932 51.6053 19.26C51.4213 19.588 51.1733 19.844 50.8613 20.028C50.5493 20.204 50.1853 20.324 49.7693 20.388C49.3613 20.452 48.9333 20.484 48.4853 20.484H47.4053V24H45.8933V15.504ZM48.3173 19.188C48.5333 19.188 48.7573 19.18 48.9893 19.164C49.2213 19.148 49.4333 19.1 49.6253 19.02C49.8253 18.94 49.9853 18.82 50.1053 18.66C50.2333 18.5 50.2973 18.276 50.2973 17.988C50.2973 17.724 50.2413 17.516 50.1293 17.364C50.0173 17.204 49.8733 17.084 49.6973 17.004C49.5213 16.916 49.3253 16.86 49.1093 16.836C48.8933 16.812 48.6853 16.8 48.4853 16.8H47.4053V19.188H48.3173ZM52.7733 19.788C52.7733 19.108 52.8853 18.492 53.1093 17.94C53.3333 17.38 53.6413 16.904 54.0333 16.512C54.4333 16.12 54.9053 15.82 55.4492 15.612C56.0013 15.396 56.6053 15.288 57.2613 15.288C57.9253 15.28 58.5333 15.38 59.0853 15.588C59.6373 15.788 60.1133 16.084 60.5133 16.476C60.9133 16.868 61.2253 17.34 61.4493 17.892C61.6733 18.444 61.7853 19.06 61.7853 19.74C61.7853 20.404 61.6733 21.008 61.4493 21.552C61.2253 22.096 60.9133 22.564 60.5133 22.956C60.1133 23.348 59.6373 23.656 59.0853 23.88C58.5333 24.096 57.9253 24.208 57.2613 24.216C56.6053 24.216 56.0013 24.112 55.4492 23.904C54.9053 23.688 54.4333 23.388 54.0333 23.004C53.6413 22.612 53.3333 22.144 53.1093 21.6C52.8853 21.056 52.7733 20.452 52.7733 19.788ZM54.3573 19.692C54.3573 20.148 54.4253 20.568 54.5613 20.952C54.7053 21.336 54.9053 21.668 55.1613 21.948C55.4173 22.228 55.7213 22.448 56.0733 22.608C56.4333 22.768 56.8333 22.848 57.2733 22.848C57.7133 22.848 58.1133 22.768 58.4733 22.608C58.8333 22.448 59.1413 22.228 59.3973 21.948C59.6533 21.668 59.8493 21.336 59.9853 20.952C60.1293 20.568 60.2013 20.148 60.2013 19.692C60.2013 19.268 60.1293 18.872 59.9853 18.504C59.8493 18.136 59.6533 17.816 59.3973 17.544C59.1413 17.264 58.8333 17.048 58.4733 16.896C58.1133 16.736 57.7133 16.656 57.2733 16.656C56.8333 16.656 56.4333 16.736 56.0733 16.896C55.7213 17.048 55.4173 17.264 55.1613 17.544C54.9053 17.816 54.7053 18.136 54.5613 18.504C54.4253 18.872 54.3573 19.268 54.3573 19.692ZM63.1893 15.504H64.7013V24H63.1893V15.504ZM70.7292 17.328C70.5692 17.096 70.3532 16.928 70.0812 16.824C69.8172 16.712 69.5372 16.656 69.2412 16.656C69.0652 16.656 68.8932 16.676 68.7252 16.716C68.5652 16.756 68.4172 16.82 68.2812 16.908C68.1532 16.996 68.0492 17.112 67.9692 17.256C67.8892 17.392 67.8492 17.556 67.8492 17.748C67.8492 18.036 67.9492 18.256 68.1492 18.408C68.3492 18.56 68.5972 18.692 68.8932 18.804C69.1892 18.916 69.5132 19.024 69.8652 19.128C70.2172 19.232 70.5412 19.376 70.8372 19.56C71.1332 19.744 71.3812 19.988 71.5812 20.292C71.7812 20.596 71.8812 21 71.8812 21.504C71.8812 21.96 71.7972 22.36 71.6292 22.704C71.4612 23.04 71.2332 23.32 70.9452 23.544C70.6652 23.768 70.3372 23.936 69.9612 24.048C69.5852 24.16 69.1892 24.216 68.7732 24.216C68.2452 24.216 67.7372 24.128 67.2492 23.952C66.7612 23.776 66.3412 23.48 65.9892 23.064L67.1292 21.96C67.3132 22.24 67.5532 22.46 67.8492 22.62C68.1532 22.772 68.4732 22.848 68.8092 22.848C68.9852 22.848 69.1612 22.824 69.3372 22.776C69.5132 22.728 69.6732 22.656 69.8172 22.56C69.9612 22.464 70.0772 22.344 70.1652 22.2C70.2532 22.048 70.2972 21.876 70.2972 21.684C70.2972 21.372 70.1972 21.132 69.9972 20.964C69.7972 20.796 69.5492 20.656 69.2532 20.544C68.9572 20.424 68.6332 20.312 68.2812 20.208C67.9292 20.104 67.6052 19.964 67.3092 19.788C67.0132 19.604 66.7652 19.364 66.5652 19.068C66.3652 18.764 66.2652 18.36 66.2652 17.856C66.2652 17.416 66.3532 17.036 66.5292 16.716C66.7132 16.396 66.9492 16.132 67.2372 15.924C67.5332 15.708 67.8692 15.548 68.2452 15.444C68.6212 15.34 69.0052 15.288 69.3972 15.288C69.8452 15.288 70.2772 15.356 70.6932 15.492C71.1172 15.628 71.4972 15.852 71.8332 16.164L70.7292 17.328ZM72.9998 19.788C72.9998 19.108 73.1118 18.492 73.3358 17.94C73.5598 17.38 73.8678 16.904 74.2598 16.512C74.6598 16.12 75.1318 15.82 75.6758 15.612C76.2278 15.396 76.8318 15.288 77.4878 15.288C78.1518 15.28 78.7598 15.38 79.3118 15.588C79.8638 15.788 80.3398 16.084 80.7398 16.476C81.1398 16.868 81.4518 17.34 81.6758 17.892C81.8998 18.444 82.0118 19.06 82.0118 19.74C82.0118 20.404 81.8998 21.008 81.6758 21.552C81.4518 22.096 81.1398 22.564 80.7398 22.956C80.3398 23.348 79.8638 23.656 79.3118 23.88C78.7598 24.096 78.1518 24.208 77.4878 24.216C76.8318 24.216 76.2278 24.112 75.6758 23.904C75.1318 23.688 74.6598 23.388 74.2598 23.004C73.8678 22.612 73.5598 22.144 73.3358 21.6C73.1118 21.056 72.9998 20.452 72.9998 19.788ZM74.5838 19.692C74.5838 20.148 74.6518 20.568 74.7878 20.952C74.9318 21.336 75.1318 21.668 75.3878 21.948C75.6438 22.228 75.9478 22.448 76.2998 22.608C76.6598 22.768 77.0598 22.848 77.4998 22.848C77.9398 22.848 78.3398 22.768 78.6998 22.608C79.0598 22.448 79.3678 22.228 79.6238 21.948C79.8798 21.668 80.0758 21.336 80.2118 20.952C80.3558 20.568 80.4278 20.148 80.4278 19.692C80.4278 19.268 80.3558 18.872 80.2118 18.504C80.0758 18.136 79.8798 17.816 79.6238 17.544C79.3678 17.264 79.0598 17.048 78.6998 16.896C78.3398 16.736 77.9398 16.656 77.4998 16.656C77.0598 16.656 76.6598 16.736 76.2998 16.896C75.9478 17.048 75.6438 17.264 75.3878 17.544C75.1318 17.816 74.9318 18.136 74.7878 18.504C74.6518 18.872 74.5838 19.268 74.5838 19.692ZM83.4519 15.504H85.4559L89.5719 21.816H89.5959V15.504H91.1079V24H89.1879L84.9879 17.484H84.9639V24H83.4519V15.504Z" fill="white"/>
<path fill-rule="evenodd" clip-rule="evenodd" d="M23.1447 27C23.853 27 24.4742 26.4995 24.8224 25.7477C25.1706 26.4995 25.7917 27 26.5 27C27.1456 27 27.7189 26.5841 28.0789 25.9411C28.439 26.5841 29.0123 27 29.6579 27C30.7479 27 31.6316 25.8145 31.6316 24.3521C31.6316 24.064 31.5973 23.7866 31.5338 23.5268C33.0485 22.3156 34 20.5657 34 18.6196C34 14.9637 30.6421 12 26.5 12C22.3579 12 19 14.9637 19 18.6196C19 20.4955 19.884 22.189 21.3044 23.3936C21.2183 23.6908 21.1711 24.0141 21.1711 24.3521C21.1711 25.8145 22.0547 27 23.1447 27ZM26.4013 22.1117C28.8539 22.1117 30.8421 20.607 30.8421 18.7509C30.8421 16.8948 28.8539 15.3902 26.4013 15.3902C23.9487 15.3902 21.9605 16.8948 21.9605 18.7509C21.9605 20.607 23.9487 22.1117 26.4013 22.1117Z" fill="white"/>
</g>
<defs>
<filter id="filter0_d" x="-5" y="-5" width="130" height="50" filterUnits="userSpaceOnUse" color-interpolation-filters="sRGB">
<feFlood flood-opacity="0" result="BackgroundImageFix"/>
<feColorMatrix in="SourceAlpha" type="matrix" values="0 0 0 0 0 0 0 0 0 0 0 0 0 0 0 0 0 0 127 0"/>
<feOffset/>
<feGaussianBlur stdDeviation="5"/>
<feColorMatrix type="matrix" values="0 0 0 0 0.709804 0 0 0 0 0.388235 0 0 0 0 0.807843 0 0 0 0.7 0"/>
<feBlend mode="normal" in2="BackgroundImageFix" result="effect1_dropShadow"/>
<feBlend mode="normal" in="SourceGraphic" in2="effect1_dropShadow" result="shape"/>
</filter>
<clipPath id="clip0">
<rect width="110" height="30" fill="white" transform="translate(5 5)"/>
</clipPath>
</defs>
</svg>
