<svg width="120" height="40" viewBox="0 0 120 40" fill="none" xmlns="http://www.w3.org/2000/svg">
<g clip-path="url(#clip0)">
<g filter="url(#filter0_d)">
<rect x="5" y="5" width="110" height="30" rx="15" fill="#F87C7A"/>
</g>
<path d="M44.2234 15.504H47.0794C47.4874 15.504 47.8794 15.544 48.2554 15.624C48.6394 15.704 48.9754 15.84 49.2634 16.032C49.5514 16.216 49.7794 16.468 49.9474 16.788C50.1234 17.1 50.2114 17.492 50.2114 17.964C50.2114 18.5 50.1194 18.932 49.9354 19.26C49.7514 19.588 49.5034 19.844 49.1914 20.028C48.8794 20.204 48.5154 20.324 48.0994 20.388C47.6914 20.452 47.2634 20.484 46.8154 20.484H45.7354V24H44.2234V15.504ZM46.6474 19.188C46.8634 19.188 47.0874 19.18 47.3194 19.164C47.5514 19.148 47.7634 19.1 47.9554 19.02C48.1554 18.94 48.3154 18.82 48.4354 18.66C48.5634 18.5 48.6274 18.276 48.6274 17.988C48.6274 17.724 48.5714 17.516 48.4594 17.364C48.3474 17.204 48.2034 17.084 48.0274 17.004C47.8514 16.916 47.6554 16.86 47.4394 16.836C47.2234 16.812 47.0154 16.8 46.8154 16.8H45.7354V19.188H46.6474ZM55.7233 17.328C55.5633 17.096 55.3473 16.928 55.0753 16.824C54.8113 16.712 54.5313 16.656 54.2353 16.656C54.0593 16.656 53.8873 16.676 53.7193 16.716C53.5593 16.756 53.4113 16.82 53.2753 16.908C53.1473 16.996 53.0433 17.112 52.9633 17.256C52.8833 17.392 52.8433 17.556 52.8433 17.748C52.8433 18.036 52.9433 18.256 53.1433 18.408C53.3433 18.56 53.5913 18.692 53.8873 18.804C54.1833 18.916 54.5073 19.024 54.8593 19.128C55.2113 19.232 55.5353 19.376 55.8313 19.56C56.1273 19.744 56.3753 19.988 56.5753 20.292C56.7753 20.596 56.8753 21 56.8753 21.504C56.8753 21.96 56.7913 22.36 56.6233 22.704C56.4553 23.04 56.2273 23.32 55.9393 23.544C55.6593 23.768 55.3313 23.936 54.9553 24.048C54.5793 24.16 54.1833 24.216 53.7673 24.216C53.2393 24.216 52.7313 24.128 52.2433 23.952C51.7553 23.776 51.3353 23.48 50.9833 23.064L52.1233 21.96C52.3073 22.24 52.5473 22.46 52.8433 22.62C53.1473 22.772 53.4673 22.848 53.8033 22.848C53.9793 22.848 54.1553 22.824 54.3313 22.776C54.5073 22.728 54.6673 22.656 54.8113 22.56C54.9553 22.464 55.0713 22.344 55.1593 22.2C55.2473 22.048 55.2913 21.876 55.2913 21.684C55.2913 21.372 55.1913 21.132 54.9913 20.964C54.7913 20.796 54.5433 20.656 54.2473 20.544C53.9513 20.424 53.6273 20.312 53.2753 20.208C52.9233 20.104 52.5993 19.964 52.3033 19.788C52.0073 19.604 51.7593 19.364 51.5593 19.068C51.3593 18.764 51.2593 18.36 51.2593 17.856C51.2593 17.416 51.3473 17.036 51.5233 16.716C51.7073 16.396 51.9433 16.132 52.2313 15.924C52.5273 15.708 52.8633 15.548 53.2393 15.444C53.6153 15.34 53.9993 15.288 54.3913 15.288C54.8393 15.288 55.2713 15.356 55.6873 15.492C56.1113 15.628 56.4913 15.852 56.8273 16.164L55.7233 17.328ZM60.526 20.364L57.334 15.504H59.23L61.318 18.888L63.43 15.504H65.23L62.038 20.364V24H60.526V20.364ZM71.8405 17.496C71.5285 17.16 71.2245 16.936 70.9285 16.824C70.6405 16.712 70.3485 16.656 70.0525 16.656C69.6125 16.656 69.2125 16.736 68.8525 16.896C68.5005 17.048 68.1965 17.264 67.9405 17.544C67.6845 17.816 67.4845 18.136 67.3405 18.504C67.2045 18.872 67.1365 19.268 67.1365 19.692C67.1365 20.148 67.2045 20.568 67.3405 20.952C67.4845 21.336 67.6845 21.668 67.9405 21.948C68.1965 22.228 68.5005 22.448 68.8525 22.608C69.2125 22.768 69.6125 22.848 70.0525 22.848C70.3965 22.848 70.7285 22.768 71.0485 22.608C71.3765 22.44 71.6805 22.176 71.9605 21.816L73.2085 22.704C72.8245 23.232 72.3565 23.616 71.8045 23.856C71.2525 24.096 70.6645 24.216 70.0405 24.216C69.3845 24.216 68.7805 24.112 68.2285 23.904C67.6845 23.688 67.2125 23.388 66.8125 23.004C66.4205 22.612 66.1125 22.144 65.8885 21.6C65.6645 21.056 65.5525 20.452 65.5525 19.788C65.5525 19.108 65.6645 18.492 65.8885 17.94C66.1125 17.38 66.4205 16.904 66.8125 16.512C67.2125 16.12 67.6845 15.82 68.2285 15.612C68.7805 15.396 69.3845 15.288 70.0405 15.288C70.6165 15.288 71.1485 15.392 71.6365 15.6C72.1325 15.8 72.5925 16.144 73.0165 16.632L71.8405 17.496ZM74.2234 15.504H75.7354V18.888H79.7074V15.504H81.2194V24H79.7074V20.256H75.7354V24H74.2234V15.504ZM83.0819 15.504H84.5939V24H83.0819V15.504ZM92.2898 17.496C91.9778 17.16 91.6738 16.936 91.3778 16.824C91.0898 16.712 90.7978 16.656 90.5018 16.656C90.0618 16.656 89.6618 16.736 89.3018 16.896C88.9498 17.048 88.6458 17.264 88.3898 17.544C88.1338 17.816 87.9338 18.136 87.7898 18.504C87.6538 18.872 87.5858 19.268 87.5858 19.692C87.5858 20.148 87.6538 20.568 87.7898 20.952C87.9338 21.336 88.1338 21.668 88.3898 21.948C88.6458 22.228 88.9498 22.448 89.3018 22.608C89.6618 22.768 90.0618 22.848 90.5018 22.848C90.8458 22.848 91.1778 22.768 91.4978 22.608C91.8258 22.44 92.1298 22.176 92.4098 21.816L93.6578 22.704C93.2738 23.232 92.8058 23.616 92.2538 23.856C91.7018 24.096 91.1138 24.216 90.4898 24.216C89.8338 24.216 89.2298 24.112 88.6778 23.904C88.1338 23.688 87.6618 23.388 87.2618 23.004C86.8698 22.612 86.5618 22.144 86.3378 21.6C86.1138 21.056 86.0018 20.452 86.0018 19.788C86.0018 19.108 86.1138 18.492 86.3378 17.94C86.5618 17.38 86.8698 16.904 87.2618 16.512C87.6618 16.12 88.1338 15.82 88.6778 15.612C89.2298 15.396 89.8338 15.288 90.4898 15.288C91.0658 15.288 91.5978 15.392 92.0858 15.6C92.5818 15.8 93.0418 16.144 93.4658 16.632L92.2898 17.496Z" fill="white"/>
<path fill-rule="evenodd" clip-rule="evenodd" d="M30.9745 24.6261C30.9745 24.6261 29.2092 26.042 25.6963 25.456C23.0311 25.0115 21.6096 22.0736 21.6096 20.4944C21.6096 16.7502 24.3808 15.8981 26.2543 15.8981C28.1278 15.8981 29.35 17.7247 29.35 19.1389C29.35 20.5531 28.3497 21.7901 26.7931 21.7901C25.2366 21.7901 24.7755 20.6973 24.7755 19.6926C24.7755 18.6879 25.5884 18.334 26.3297 18.334C27.071 18.334 27.3249 18.9669 27.3249 19.5108C27.3249 20.0548 26.9028 20.2496 26.5508 20.2496C26.1988 20.2496 26.1639 20.072 26.0292 19.8854C25.8945 19.6987 26.2011 18.9923 25.6963 18.9923C25.1915 18.9923 25.0974 19.8044 25.0974 19.8044C25.0974 19.8044 25.2815 21.3721 26.7931 21.3451C28.3048 21.318 29.022 20.1493 28.8136 18.9923C28.6052 17.8352 27.4822 16.6057 25.5115 16.8541C23.5407 17.1026 22.736 19.0939 23.0907 21.2219C23.4454 23.3499 25.9947 24.5829 27.9992 24.1393C30.0036 23.6957 32 22.2445 32 18.5653C32 14.8861 28.8136 12.6746 25.014 13.0391C21.2145 13.4036 18.8559 16.7254 19.0068 20.7166C19.1578 24.7078 22.945 26.8816 26.1475 26.9936C29.35 27.1057 31.3132 25.2518 31.3132 25.2518C31.3132 25.2518 31.7547 24.8581 31.5816 24.5506C31.4085 24.2432 30.9745 24.6261 30.9745 24.6261Z" fill="white"/>
</g>
<defs>
<filter id="filter0_d" x="-5" y="-5" width="130" height="50" filterUnits="userSpaceOnUse" color-interpolation-filters="sRGB">
<feFlood flood-opacity="0" result="BackgroundImageFix"/>
<feColorMatrix in="SourceAlpha" type="matrix" values="0 0 0 0 0 0 0 0 0 0 0 0 0 0 0 0 0 0 127 0"/>
<feOffset/>
<feGaussianBlur stdDeviation="5"/>
<feColorMatrix type="matrix" values="0 0 0 0 0.972549 0 0 0 0 0.486275 0 0 0 0 0.478431 0 0 0 0.7 0"/>
<feBlend mode="normal" in2="BackgroundImageFix" result="effect1_dropShadow"/>
<feBlend mode="normal" in="SourceGraphic" in2="effect1_dropShadow" result="shape"/>
</filter>
<clipPath id="clip0">
<rect width="110" height="30" fill="white" transform="translate(5 5)"/>
</clipPath>
</defs>
</svg>
