<svg width="120" height="40" viewBox="0 0 120 40" fill="none" xmlns="http://www.w3.org/2000/svg">
<g clip-path="url(#clip0)">
<g filter="url(#filter0_d)">
<rect x="5" y="5" width="110" height="30" rx="15" fill="#CEC18C"/>
</g>
<path d="M52.4558 15.504H55.4078C55.8158 15.504 56.2078 15.544 56.5838 15.624C56.9678 15.696 57.3078 15.824 57.6038 16.008C57.8998 16.192 58.1358 16.44 58.3118 16.752C58.4878 17.064 58.5758 17.46 58.5758 17.94C58.5758 18.556 58.4038 19.072 58.0598 19.488C57.7238 19.904 57.2398 20.156 56.6078 20.244L58.8638 24H57.0398L55.0718 20.4H53.9678V24H52.4558V15.504ZM55.1438 19.104C55.3598 19.104 55.5758 19.096 55.7918 19.08C56.0078 19.056 56.2038 19.008 56.3798 18.936C56.5638 18.856 56.7118 18.74 56.8238 18.588C56.9358 18.428 56.9918 18.208 56.9918 17.928C56.9918 17.68 56.9398 17.48 56.8358 17.328C56.7318 17.176 56.5958 17.064 56.4278 16.992C56.2598 16.912 56.0718 16.86 55.8638 16.836C55.6638 16.812 55.4678 16.8 55.2758 16.8H53.9678V19.104H55.1438ZM59.5584 19.788C59.5584 19.108 59.6704 18.492 59.8944 17.94C60.1184 17.38 60.4264 16.904 60.8184 16.512C61.2184 16.12 61.6904 15.82 62.2344 15.612C62.7864 15.396 63.3904 15.288 64.0464 15.288C64.7104 15.28 65.3184 15.38 65.8704 15.588C66.4224 15.788 66.8984 16.084 67.2984 16.476C67.6984 16.868 68.0104 17.34 68.2344 17.892C68.4584 18.444 68.5704 19.06 68.5704 19.74C68.5704 20.404 68.4584 21.008 68.2344 21.552C68.0104 22.096 67.6984 22.564 67.2984 22.956C66.8984 23.348 66.4224 23.656 65.8704 23.88C65.3184 24.096 64.7104 24.208 64.0464 24.216C63.3904 24.216 62.7864 24.112 62.2344 23.904C61.6904 23.688 61.2184 23.388 60.8184 23.004C60.4264 22.612 60.1184 22.144 59.8944 21.6C59.6704 21.056 59.5584 20.452 59.5584 19.788ZM61.1424 19.692C61.1424 20.148 61.2104 20.568 61.3464 20.952C61.4904 21.336 61.6904 21.668 61.9464 21.948C62.2024 22.228 62.5064 22.448 62.8584 22.608C63.2184 22.768 63.6184 22.848 64.0584 22.848C64.4984 22.848 64.8984 22.768 65.2584 22.608C65.6184 22.448 65.9264 22.228 66.1824 21.948C66.4384 21.668 66.6344 21.336 66.7704 20.952C66.9144 20.568 66.9864 20.148 66.9864 19.692C66.9864 19.268 66.9144 18.872 66.7704 18.504C66.6344 18.136 66.4384 17.816 66.1824 17.544C65.9264 17.264 65.6184 17.048 65.2584 16.896C64.8984 16.736 64.4984 16.656 64.0584 16.656C63.6184 16.656 63.2184 16.736 62.8584 16.896C62.5064 17.048 62.2024 17.264 61.9464 17.544C61.6904 17.816 61.4904 18.136 61.3464 18.504C61.2104 18.872 61.1424 19.268 61.1424 19.692ZM75.8425 17.496C75.5305 17.16 75.2265 16.936 74.9305 16.824C74.6425 16.712 74.3505 16.656 74.0545 16.656C73.6145 16.656 73.2145 16.736 72.8545 16.896C72.5025 17.048 72.1985 17.264 71.9425 17.544C71.6865 17.816 71.4865 18.136 71.3425 18.504C71.2065 18.872 71.1385 19.268 71.1385 19.692C71.1385 20.148 71.2065 20.568 71.3425 20.952C71.4865 21.336 71.6865 21.668 71.9425 21.948C72.1985 22.228 72.5025 22.448 72.8545 22.608C73.2145 22.768 73.6145 22.848 74.0545 22.848C74.3985 22.848 74.7305 22.768 75.0505 22.608C75.3785 22.44 75.6825 22.176 75.9625 21.816L77.2105 22.704C76.8265 23.232 76.3585 23.616 75.8065 23.856C75.2545 24.096 74.6665 24.216 74.0425 24.216C73.3865 24.216 72.7825 24.112 72.2305 23.904C71.6865 23.688 71.2145 23.388 70.8145 23.004C70.4225 22.612 70.1145 22.144 69.8905 21.6C69.6665 21.056 69.5545 20.452 69.5545 19.788C69.5545 19.108 69.6665 18.492 69.8905 17.94C70.1145 17.38 70.4225 16.904 70.8145 16.512C71.2145 16.12 71.6865 15.82 72.2305 15.612C72.7825 15.396 73.3865 15.288 74.0425 15.288C74.6185 15.288 75.1505 15.392 75.6385 15.6C76.1345 15.8 76.5945 16.144 77.0185 16.632L75.8425 17.496ZM78.2253 15.504H79.7373V19.104H79.8093L83.3253 15.504H85.3653L81.3933 19.428L85.6293 24H83.5053L79.8213 19.824H79.7373V24H78.2253V15.504Z" fill="white"/>
<path fill-rule="evenodd" clip-rule="evenodd" d="M29.8536 20.2658C29.8242 20.2258 29.8124 20.1757 29.8208 20.1268L30.674 15.1518C30.689 15.0641 30.7661 15 30.8551 15C30.9348 15 31.0062 15.0517 31.0302 15.1276L32.9618 21.2435C32.9848 21.3162 32.9601 21.3956 32.9 21.4425L31.661 22.4099C31.5799 22.4732 31.4624 22.457 31.4014 22.374L29.8536 20.2658ZM19 23.5214C19 23.6004 19.0508 23.6704 19.1259 23.695L21.9716 24.6254C22.0258 24.6432 22.0852 24.6345 22.1322 24.6021L28.818 19.9864C28.8596 19.9577 28.8874 19.913 28.8949 19.863L29.5847 15.2347C29.6011 15.1243 29.5156 15.0251 29.404 15.0251H23.6513C23.5969 15.0251 23.5454 15.0493 23.5107 15.0912L19.042 20.4819C19.0149 20.5147 19 20.5559 19 20.5985V23.5214ZM23.3271 24.907L26.5755 25.9712C26.6309 25.9893 26.6915 25.9799 26.7389 25.946L30.4951 23.2516C30.5753 23.1941 30.5953 23.0833 30.5402 23.0013L29.2482 21.0787C29.1916 20.9945 29.0772 20.9725 28.9935 21.0298L23.3271 24.907Z" fill="white"/>
</g>
<defs>
<filter id="filter0_d" x="-5" y="-5" width="130" height="50" filterUnits="userSpaceOnUse" color-interpolation-filters="sRGB">
<feFlood flood-opacity="0" result="BackgroundImageFix"/>
<feColorMatrix in="SourceAlpha" type="matrix" values="0 0 0 0 0 0 0 0 0 0 0 0 0 0 0 0 0 0 127 0"/>
<feOffset/>
<feGaussianBlur stdDeviation="5"/>
<feColorMatrix type="matrix" values="0 0 0 0 0.807843 0 0 0 0 0.756863 0 0 0 0 0.54902 0 0 0 0.7 0"/>
<feBlend mode="normal" in2="BackgroundImageFix" result="effect1_dropShadow"/>
<feBlend mode="normal" in="SourceGraphic" in2="effect1_dropShadow" result="shape"/>
</filter>
<clipPath id="clip0">
<rect width="110" height="30" fill="white" transform="translate(5 5)"/>
</clipPath>
</defs>
</svg>
