<svg width="120" height="40" viewBox="0 0 120 40" fill="none" xmlns="http://www.w3.org/2000/svg">
<g clip-path="url(#clip0)">
<g filter="url(#filter0_d)">
<rect x="5" y="5" width="110" height="30" rx="15" fill="#5596A4"/>
</g>
<path d="M56.2741 17.328C56.1141 17.096 55.8981 16.928 55.6261 16.824C55.3621 16.712 55.0821 16.656 54.7861 16.656C54.6101 16.656 54.4381 16.676 54.2701 16.716C54.1101 16.756 53.9621 16.82 53.8261 16.908C53.6981 16.996 53.5941 17.112 53.5141 17.256C53.4341 17.392 53.3941 17.556 53.3941 17.748C53.3941 18.036 53.4941 18.256 53.6941 18.408C53.8941 18.56 54.1421 18.692 54.4381 18.804C54.7341 18.916 55.0581 19.024 55.4101 19.128C55.7621 19.232 56.0861 19.376 56.3821 19.56C56.6781 19.744 56.9261 19.988 57.1261 20.292C57.3261 20.596 57.4261 21 57.4261 21.504C57.4261 21.96 57.3421 22.36 57.1741 22.704C57.0061 23.04 56.7781 23.32 56.4901 23.544C56.2101 23.768 55.8821 23.936 55.5061 24.048C55.1301 24.16 54.7341 24.216 54.3181 24.216C53.7901 24.216 53.2821 24.128 52.7941 23.952C52.3061 23.776 51.8861 23.48 51.5341 23.064L52.6741 21.96C52.8581 22.24 53.0981 22.46 53.3941 22.62C53.6981 22.772 54.0181 22.848 54.3541 22.848C54.5301 22.848 54.7061 22.824 54.8821 22.776C55.0581 22.728 55.2181 22.656 55.3621 22.56C55.5061 22.464 55.6221 22.344 55.7101 22.2C55.7981 22.048 55.8421 21.876 55.8421 21.684C55.8421 21.372 55.7421 21.132 55.5421 20.964C55.3421 20.796 55.0941 20.656 54.7981 20.544C54.5021 20.424 54.1781 20.312 53.8261 20.208C53.4741 20.104 53.1501 19.964 52.8541 19.788C52.5581 19.604 52.3101 19.364 52.1101 19.068C51.9101 18.764 51.8101 18.36 51.8101 17.856C51.8101 17.416 51.8981 17.036 52.0741 16.716C52.2581 16.396 52.4941 16.132 52.7821 15.924C53.0781 15.708 53.4141 15.548 53.7901 15.444C54.1661 15.34 54.5501 15.288 54.9421 15.288C55.3901 15.288 55.8221 15.356 56.2381 15.492C56.6621 15.628 57.0421 15.852 57.3781 16.164L56.2741 17.328ZM60.7407 16.872H58.1367V15.504H64.8567V16.872H62.2527V24H60.7407V16.872ZM65.8914 15.504H71.5194V16.872H67.4034V18.96H71.3034V20.328H67.4034V22.632H71.7354V24H65.8914V15.504ZM73.2273 15.504H78.8553V16.872H74.7393V18.96H78.6393V20.328H74.7393V22.632H79.0713V24H73.2273V15.504ZM80.5632 15.504H82.0752V22.632H85.6872V24H80.5632V15.504Z" fill="white"/>
<path fill-rule="evenodd" clip-rule="evenodd" d="M19.0511 19.6919C18.983 19.5756 18.983 19.4317 19.051 19.3154L22.6395 13.1843C22.7063 13.0702 22.8287 13 22.961 13H30.0772C30.2101 13 30.333 13.0708 30.3996 13.1859L33.9487 19.3169C34.0155 19.4324 34.0155 19.5749 33.9486 19.6903L30.3996 25.8143C30.333 25.9292 30.2102 26 30.0773 26H22.9608C22.8286 26 22.7063 25.9299 22.6394 25.8158L19.0511 19.6919ZM26.5 23C28.433 23 30 21.433 30 19.5C30 17.567 28.433 16 26.5 16C24.567 16 23 17.567 23 19.5C23 21.433 24.567 23 26.5 23Z" fill="white"/>
</g>
<defs>
<filter id="filter0_d" x="-5" y="-5" width="130" height="50" filterUnits="userSpaceOnUse" color-interpolation-filters="sRGB">
<feFlood flood-opacity="0" result="BackgroundImageFix"/>
<feColorMatrix in="SourceAlpha" type="matrix" values="0 0 0 0 0 0 0 0 0 0 0 0 0 0 0 0 0 0 127 0"/>
<feOffset/>
<feGaussianBlur stdDeviation="5"/>
<feColorMatrix type="matrix" values="0 0 0 0 0.333333 0 0 0 0 0.588235 0 0 0 0 0.643137 0 0 0 0.7 0"/>
<feBlend mode="normal" in2="BackgroundImageFix" result="effect1_dropShadow"/>
<feBlend mode="normal" in="SourceGraphic" in2="effect1_dropShadow" result="shape"/>
</filter>
<clipPath id="clip0">
<rect width="110" height="30" fill="white" transform="translate(5 5)"/>
</clipPath>
</defs>
</svg>
