<svg width="120" height="40" viewBox="0 0 120 40" fill="none" xmlns="http://www.w3.org/2000/svg">
<g clip-path="url(#clip0)">
<g filter="url(#filter0_d)">
<rect x="5" y="5" width="110" height="30" rx="15" fill="#559EDF"/>
</g>
<path d="M48.0918 15.504H49.7478L51.3438 21.624H51.3678L53.2758 15.504H54.7638L56.6358 21.624H56.6598L58.3278 15.504H59.8638L57.3918 24H55.9518L53.9838 17.532H53.9598L51.9918 24H50.5998L48.0918 15.504ZM63.2605 15.504H64.5685L68.2285 24H66.5005L65.7085 22.056H62.0245L61.2565 24H59.5645L63.2605 15.504ZM65.1805 20.76L63.8725 17.304L62.5405 20.76H65.1805ZM69.811 16.872H67.207V15.504H73.927V16.872H71.323V24H69.811V16.872ZM74.9617 15.504H80.5897V16.872H76.4737V18.96H80.3737V20.328H76.4737V22.632H80.8057V24H74.9617V15.504ZM82.2976 15.504H85.2496C85.6576 15.504 86.0496 15.544 86.4256 15.624C86.8096 15.696 87.1496 15.824 87.4456 16.008C87.7416 16.192 87.9776 16.44 88.1536 16.752C88.3296 17.064 88.4176 17.46 88.4176 17.94C88.4176 18.556 88.2456 19.072 87.9016 19.488C87.5656 19.904 87.0816 20.156 86.4496 20.244L88.7056 24H86.8816L84.9136 20.4H83.8096V24H82.2976V15.504ZM84.9856 19.104C85.2016 19.104 85.4176 19.096 85.6336 19.08C85.8496 19.056 86.0456 19.008 86.2216 18.936C86.4056 18.856 86.5536 18.74 86.6656 18.588C86.7776 18.428 86.8336 18.208 86.8336 17.928C86.8336 17.68 86.7816 17.48 86.6776 17.328C86.5736 17.176 86.4376 17.064 86.2696 16.992C86.1016 16.912 85.9136 16.86 85.7056 16.836C85.5056 16.812 85.3096 16.8 85.1176 16.8H83.8096V19.104H84.9856Z" fill="white"/>
<path fill-rule="evenodd" clip-rule="evenodd" d="M24 27C26.7614 27 29 23.5474 29 19.2884C29 15.0294 26.7614 11.5768 24 11.5768C21.2386 11.5768 19 15.0294 19 19.2884C19 23.5474 21.2386 27 24 27ZM23.1665 25.4031C20.6293 24.8479 21.0634 22.0373 21.0634 22.0373C21.0634 22.0373 21.7563 23.734 23.4376 24.2835C25.1189 24.8331 27.1507 24.0271 27.1507 24.0271C27.1507 24.0271 25.7037 25.9582 23.1665 25.4031Z" fill="white"/>
</g>
<defs>
<filter id="filter0_d" x="-5" y="-5" width="130" height="50" filterUnits="userSpaceOnUse" color-interpolation-filters="sRGB">
<feFlood flood-opacity="0" result="BackgroundImageFix"/>
<feColorMatrix in="SourceAlpha" type="matrix" values="0 0 0 0 0 0 0 0 0 0 0 0 0 0 0 0 0 0 127 0"/>
<feOffset/>
<feGaussianBlur stdDeviation="5"/>
<feColorMatrix type="matrix" values="0 0 0 0 0.333333 0 0 0 0 0.619608 0 0 0 0 0.87451 0 0 0 0.7 0"/>
<feBlend mode="normal" in2="BackgroundImageFix" result="effect1_dropShadow"/>
<feBlend mode="normal" in="SourceGraphic" in2="effect1_dropShadow" result="shape"/>
</filter>
<clipPath id="clip0">
<rect width="110" height="30" fill="white" transform="translate(5 5)"/>
</clipPath>
</defs>
</svg>
